P3
1 256
255
4 0 0
4 0 0
6 0 0
9 0 0
12 0 0
14 0 0
18 0 0
21 1 0
24 1 0
27 1 0
30 2 0
34 2 0
36 1 0
40 1 0
43 1 0
46 1 0
49 1 0
52 1 0
55 1 0
58 2 0
62 2 0
65 2 0
68 3 0
71 3 0
74 4 0
76 4 0
79 4 0
82 5 0
84 5 0
86 6 0
89 6 0
91 7 0
93 7 0
95 8 0
97 8 0
99 8 0
102 9 0
104 9 0
106 10 0
108 10 0
111 11 0
113 11 1
114 12 1
117 12 2
119 13 2
121 13 2
124 13 3
126 14 3
128 14 4
130 15 4
132 15 5
134 16 5
136 16 5
139 17 6
141 17 6
143 17 6
146 18 7
147 18 7
149 19 8
152 19 8
154 20 9
156 20 9
158 21 10
161 21 10
163 21 10
164 22 10
166 22 11
167 23 11
169 23 12
170 24 12
172 24 13
173 25 13
174 25 14
176 26 14
177 26 14
178 26 15
180 27 15
181 27 15
182 28 16
184 28 16
185 29 17
186 30 17
188 31 18
189 32 18
190 32 18
192 34 19
193 35 19
194 36 20
196 37 20
197 39 20
199 40 21
200 41 21
201 42 22
203 43 22
204 44 22
205 45 23
206 46 23
208 47 24
209 48 24
211 50 25
212 51 25
213 52 25
215 53 26
215 54 26
217 55 26
218 56 27
219 57 27
220 58 28
222 59 28
223 61 29
224 62 29
225 63 30
227 64 30
227 65 30
229 66 30
230 67 31
231 68 31
232 69 32
234 71 32
235 72 33
236 73 33
237 74 34
239 75 34
239 76 34
241 77 35
242 78 35
243 78 35
244 79 36
245 80 36
246 81 37
246 82 37
246 83 38
246 84 38
246 84 38
246 85 39
246 86 39
246 87 40
246 88 40
246 90 40
246 92 41
246 93 41
246 95 42
247 98 42
247 100 42
247 102 43
247 103 43
247 105 44
247 108 45
247 110 46
247 112 47
247 113 48
248 114 49
248 116 50
248 117 51
248 119 52
248 120 53
248 121 53
248 123 54
248 124 54
249 125 55
249 126 56
249 128 56
249 129 56
249 130 57
249 132 58
249 133 58
249 134 59
249 136 60
250 137 60
250 139 61
250 140 61
250 142 61
250 143 61
250 145 61
250 147 61
250 148 61
251 150 61
251 152 61
251 154 61
251 155 61
251 157 62
251 159 62
251 161 62
251 163 62
251 164 63
252 166 63
252 168 64
252 170 65
252 172 65
252 173 66
252 175 67
252 177 68
252 179 68
253 181 70
253 182 72
253 184 74
253 186 77
253 188 80
253 190 83
253 191 87
253 193 90
254 195 94
254 197 97
254 199 100
254 200 104
254 202 107
254 205 111
254 207 115
254 209 118
254 210 122
254 212 125
254 214 129
254 216 133
254 218 136
254 219 140
254 221 142
254 223 146
254 225 149
255 227 153
255 228 157
255 230 160
255 232 164
255 234 167
255 236 171
255 237 175
255 239 178
255 241 182
255 243 185
255 245 188
255 246 192
255 248 195
255 250 199
255 251 202
255 252 206
255 253 210
255 253 213
255 254 217
255 254 220
255 254 224
255 254 228
255 254 231
255 254 234
255 254 237
255 254 241
255 254 244
255 254 247
255 254 249
255 254 251
255 254 252
255 254 253
255 254 254
255 254 254
255 254 254
255 254 254
255 255 254
255 255 254
