P3
1 256
255
4 6 6
4 6 6
4 6 6
4 7 7
5 7 8
5 7 8
6 8 8
6 9 10
7 10 11
8 11 12
10 12 13
11 13 14
12 14 16
13 15 17
15 16 18
16 16 19
17 17 21
19 19 22
20 20 23
21 21 25
23 22 27
25 23 28
26 24 30
27 25 31
29 27 32
30 27 34
31 29 35
32 30 36
34 32 38
35 33 39
37 35 41
39 36 42
40 37 43
41 39 45
43 41 47
44 42 48
45 44 49
46 45 50
47 46 52
49 48 53
50 50 55
52 51 56
53 52 57
54 54 59
56 56 60
57 57 61
58 59 63
59 60 64
61 62 65
62 63 67
64 65 68
66 67 70
67 68 71
68 69 72
69 71 73
71 73 75
72 74 76
73 75 77
75 77 79
77 79 80
78 80 82
80 82 83
81 83 84
82 85 86
83 86 87
85 88 89
86 89 90
87 90 91
88 92 93
90 94 94
91 95 96
93 97 97
94 98 98
95 100 100
96 101 101
98 103 103
99 104 104
100 105 105
102 107 107
103 109 109
105 111 110
106 112 111
107 113 113
109 115 114
110 116 115
112 117 116
113 118 117
114 119 118
116 120 119
117 121 120
119 121 120
120 121 121
121 121 121
122 121 121
123 121 121
125 119 119
126 117 118
128 115 115
131 111 111
136 106 106
140 99 99
146 91 90
152 83 81
159 74 72
166 65 62
174 55 52
182 46 42
190 37 34
198 29 26
206 23 21
213 17 15
220 13 12
225 10 9
231 7 8
236 6 7
239 4 6
242 3 5
244 3 5
246 2 5
247 1 5
248 1 5
249 1 5
249 0 5
249 0 5
249 0 5
250 0 5
250 0 5
250 0 5
250 0 5
251 0 5
251 0 5
251 0 6
252 0 6
252 0 6
252 0 6
252 1 6
252 1 6
253 1 6
253 2 6
253 3 7
253 4 7
253 7 8
253 10 9
253 13 9
253 18 10
253 24 11
253 30 13
254 37 15
254 45 18
254 54 20
254 63 22
254 72 25
254 81 29
254 90 31
254 97 34
254 104 37
254 111 39
254 117 42
254 122 44
254 127 46
254 131 47
254 134 49
254 137 51
254 140 53
254 143 54
254 144 55
254 146 57
254 149 58
254 151 59
254 153 60
254 154 61
254 156 62
254 157 63
254 159 64
254 161 66
254 162 67
254 164 68
254 166 70
254 168 71
254 169 72
254 171 74
254 172 76
254 174 78
254 176 80
255 177 82
255 179 84
255 181 86
255 183 89
255 184 91
255 185 93
255 187 96
255 189 99
255 190 101
255 192 104
255 193 107
255 194 109
255 196 112
255 197 115
255 198 117
255 199 120
255 201 123
255 202 126
255 202 128
255 203 131
255 204 134
255 205 136
255 206 139
255 207 142
255 208 145
255 209 148
255 211 151
255 211 153
255 212 156
255 213 159
255 214 162
255 215 164
255 216 167
255 217 170
255 218 172
255 219 175
255 221 178
255 221 181
255 223 184
255 224 187
255 225 189
255 226 192
255 228 195
255 229 198
255 231 200
255 232 203
255 233 206
255 234 208
255 236 211
255 237 214
255 238 216
255 240 219
255 241 222
255 243 225
255 244 227
255 245 230
255 246 232
255 246 234
255 247 237
255 248 238
255 249 240
255 250 242
255 251 244
255 251 246
255 251 247
255 252 248
255 252 249
255 252 249
255 252 250
255 252 250
255 252 251
255 252 251
