P3
1 256
255
9 5 5
9 5 5
10 6 6
11 6 6
11 7 7
12 7 7
13 7 8
14 8 9
15 9 10
17 10 11
18 11 12
20 12 13
21 13 15
22 14 16
24 15 17
25 15 18
27 17 20
28 18 22
29 19 23
31 20 24
33 21 26
34 22 27
36 23 29
37 24 30
39 26 32
40 26 33
41 28 34
42 29 35
43 31 37
43 32 38
44 34 40
46 35 42
47 36 43
49 38 44
50 40 46
52 41 47
54 43 48
55 44 49
58 45 51
69 47 52
92 49 54
115 50 55
134 51 56
152 53 58
170 55 59
187 56 60
203 58 62
215 59 63
224 61 64
230 62 66
235 64 67
237 66 69
239 67 70
241 68 71
241 70 72
242 71 74
242 73 75
243 74 76
243 76 78
244 78 79
244 79 81
245 81 82
246 82 83
246 84 85
246 85 86
246 87 88
247 88 89
247 89 90
247 91 92
247 93 93
247 94 95
246 96 97
245 97 98
242 99 99
239 100 100
235 102 102
229 104 104
223 105 105
215 106 106
206 108 108
196 110 109
186 111 110
177 112 112
168 114 113
159 115 114
152 117 116
146 118 117
140 120 118
136 121 120
133 123 122
131 125 123
130 126 124
129 127 126
129 129 127
129 130 128
130 132 130
131 133 131
132 135 132
133 136 133
134 138 135
135 140 136
136 141 137
138 142 139
139 143 139
141 144 141
143 145 142
146 146 143
148 147 143
151 147 144
155 147 144
159 145 143
163 144 142
168 141 140
173 138 137
179 134 133
185 130 129
190 125 124
195 119 118
202 112 111
207 106 104
212 100 96
217 93 88
222 87 80
226 81 72
229 76 65
233 72 58
236 69 52
239 66 46
241 64 41
244 64 37
245 64 33
246 65 30
248 66 28
248 68 27
249 70 26
250 73 25
250 76 25
251 79 25
251 83 26
251 86 26
252 90 27
252 93 28
252 97 29
252 100 30
252 103 31
252 106 32
252 108 33
252 111 35
252 114 36
252 116 37
252 118 38
252 120 40
252 122 41
252 124 42
252 126 43
253 127 44
253 129 45
253 131 46
253 133 48
253 135 49
253 136 50
253 138 51
253 140 51
253 142 52
253 144 54
253 145 55
253 147 56
253 148 57
253 150 58
253 152 59
253 153 60
253 155 61
253 157 62
253 159 63
253 160 65
253 161 66
254 163 67
254 165 69
254 167 70
254 168 71
254 170 73
254 172 75
254 173 77
254 175 79
254 176 81
254 178 83
254 180 86
254 182 88
254 183 90
254 184 93
254 186 96
254 188 99
254 189 101
254 191 104
254 192 107
254 193 109
254 194 112
254 196 115
254 197 117
254 198 120
254 199 123
254 200 126
254 201 128
254 202 131
254 203 134
254 204 136
254 205 139
254 206 142
254 207 144
255 208 147
255 209 150
255 210 152
255 211 155
255 212 158
255 213 161
255 214 163
255 215 166
255 216 169
255 217 171
255 218 174
255 220 177
255 220 179
255 222 182
255 223 185
255 224 187
255 225 190
255 227 193
255 228 196
255 230 198
255 231 201
255 232 204
255 233 206
255 235 209
255 236 212
255 237 214
255 239 217
255 240 220
255 242 223
255 243 225
255 244 228
255 245 231
255 246 233
255 247 236
255 248 237
255 248 239
255 249 241
255 250 243
255 250 245
255 251 246
255 251 247
255 251 248
255 251 248
255 251 249
255 251 250
255 251 250
255 251 250
