P3
1 256
255
0 3 3
1 3 3
2 4 4
3 5 5
4 6 6
4 6 6
5 7 7
6 9 9
7 10 10
8 11 11
9 13 13
10 14 14
11 15 16
12 16 17
13 17 18
16 17 20
18 18 21
20 19 23
21 20 24
22 20 26
24 21 27
25 23 29
27 24 30
28 25 31
29 26 33
30 27 34
32 29 36
33 30 37
34 31 38
36 33 40
38 35 42
39 37 43
40 38 44
42 39 46
43 41 47
44 43 48
46 44 50
47 45 51
48 47 52
49 49 54
51 50 55
52 52 57
53 53 58
55 54 59
56 56 61
57 57 62
59 59 63
60 60 64
61 62 66
63 64 67
64 65 69
66 67 70
67 68 71
69 70 73
70 72 74
71 73 75
73 75 77
74 76 78
76 78 79
77 79 81
79 81 82
80 82 84
81 83 85
83 85 86
84 86 87
85 88 89
87 90 90
88 91 91
89 93 93
90 94 95
92 96 96
93 98 98
94 99 99
96 100 101
97 102 102
98 103 103
100 105 105
101 106 106
102 108 108
104 109 109
105 111 111
106 112 112
108 114 113
109 115 115
110 117 116
112 118 117
113 119 118
114 121 120
116 123 121
117 125 123
119 126 124
120 127 125
121 129 127
123 131 129
124 132 130
126 134 131
127 135 132
129 137 134
130 138 135
132 140 137
134 141 138
135 142 139
136 144 140
137 146 141
139 147 143
140 149 144
141 150 145
143 152 147
145 153 148
148 155 150
151 156 151
155 156 152
160 156 153
166 155 153
173 153 152
181 149 150
190 144 147
198 136 140
206 126 131
213 116 121
220 103 108
226 91 94
231 80 80
235 69 67
239 61 55
242 55 44
244 51 36
247 49 30
249 48 25
250 49 22
251 51 21
252 54 19
253 58 19
253 62 19
253 66 20
254 70 21
254 75 22
254 79 23
254 84 25
254 88 26
254 93 27
254 97 29
254 101 30
254 105 31
254 108 33
254 111 34
254 113 35
254 115 37
254 118 38
254 120 39
254 121 40
254 123 42
254 125 43
254 126 44
254 128 45
254 129 46
255 131 47
255 133 48
255 135 49
255 137 51
255 138 52
255 140 53
255 141 53
255 143 54
255 145 55
255 146 56
255 148 58
255 150 59
255 152 60
255 153 61
255 154 62
255 156 63
255 158 63
255 160 64
255 162 65
255 163 66
255 165 68
255 166 69
255 168 70
255 169 71
255 171 73
255 173 74
255 175 76
255 177 79
255 178 81
255 179 83
255 181 85
255 183 88
255 185 90
255 186 93
255 188 96
255 190 99
255 191 101
255 193 104
255 194 107
255 196 109
255 197 112
255 199 115
255 200 117
255 201 120
255 202 123
255 203 126
255 203 129
255 204 132
255 205 135
255 206 137
255 207 140
255 208 143
255 209 145
255 210 148
255 211 151
255 211 153
255 212 156
255 213 159
255 214 162
255 215 165
255 216 168
255 217 171
255 218 173
255 219 176
255 221 179
255 221 181
255 223 184
255 224 187
255 225 189
255 226 192
255 228 195
255 229 198
255 231 201
255 232 204
255 234 207
255 235 209
255 236 212
255 237 215
255 239 217
255 240 220
255 242 223
255 244 226
255 245 228
255 246 231
255 248 234
255 249 236
255 250 239
255 251 241
255 252 243
255 252 246
255 253 248
255 253 249
255 253 250
255 254 252
255 253 253
255 253 253
255 253 253
255 253 254
255 253 254
255 253 254
