P3
1 256
255
0 2 10
0 2 10
0 2 11
1 2 12
1 3 13
1 3 15
2 4 17
2 5 20
3 6 22
4 7 24
5 8 27
6 9 30
7 10 32
8 11 35
9 12 38
9 12 40
11 14 43
12 15 46
13 16 48
14 17 51
15 18 54
17 20 57
18 21 59
19 22 62
20 23 65
20 23 67
21 25 70
22 26 73
23 27 75
26 28 78
27 29 81
28 30 83
29 31 85
30 32 88
31 33 91
31 33 93
32 34 96
33 35 99
34 36 101
35 37 104
36 38 107
37 39 109
38 40 112
39 41 115
40 42 117
41 43 119
42 44 122
43 45 123
44 46 125
45 47 126
46 48 128
47 49 129
48 50 130
49 51 131
49 52 132
50 53 133
51 54 134
52 55 135
53 56 136
54 57 137
55 58 138
56 59 139
57 60 140
59 62 141
59 62 141
60 63 142
61 64 143
62 65 144
63 66 145
64 68 146
65 69 147
66 70 148
67 71 149
68 72 150
68 72 151
69 73 152
70 74 153
71 75 154
72 77 155
74 78 157
75 79 158
76 80 159
77 81 160
78 82 161
78 82 162
79 83 163
80 84 164
81 85 165
82 86 166
83 87 167
84 88 168
85 89 169
86 90 170
87 91 171
87 91 171
89 92 172
90 93 173
91 94 174
92 95 175
93 96 176
94 98 177
95 99 178
96 100 179
96 100 179
97 101 181
98 103 182
99 104 183
100 105 184
101 106 185
102 107 186
103 109 187
104 110 188
105 111 189
107 111 190
109 112 191
110 113 192
111 114 193
112 115 194
113 116 195
115 117 196
116 118 197
117 119 198
118 120 199
119 120 199
120 121 200
122 122 201
123 123 202
124 124 203
125 126 204
126 127 205
127 128 206
128 129 207
129 130 207
129 130 207
130 131 208
131 132 208
132 133 209
134 135 209
135 136 210
136 137 210
137 138 211
138 139 211
139 140 212
139 140 212
140 141 212
141 142 213
142 143 213
144 145 213
145 146 214
146 147 214
147 148 214
148 149 215
149 150 215
150 151 215
151 152 216
152 153 216
153 154 217
154 155 217
155 156 217
156 157 218
156 158 218
157 159 219
157 160 219
159 161 219
160 162 220
161 163 220
162 164 220
163 165 221
164 166 221
166 167 222
167 168 222
168 169 222
168 169 222
169 170 223
170 171 223
171 172 224
172 173 224
173 174 225
174 175 225
175 176 225
176 177 226
177 178 226
177 178 226
179 179 226
180 180 226
181 182 226
182 183 227
184 184 227
185 185 227
186 186 227
187 187 228
188 189 228
188 189 228
189 190 229
190 191 229
191 193 229
192 194 230
193 195 230
194 196 231
195 197 231
196 198 231
197 199 232
198 199 232
199 200 232
200 201 233
201 202 233
202 203 234
203 204 234
204 205 234
205 206 235
206 207 235
206 208 235
208 209 236
209 210 236
210 211 237
211 212 237
212 213 237
214 214 238
215 215 238
216 216 238
217 217 239
217 218 239
218 219 239
219 220 239
220 221 240
221 222 240
222 223 241
223 224 241
223 225 241
224 226 242
225 227 242
226 228 242
227 229 243
228 230 243
229 231 243
231 232 244
232 233 244
233 235 245
234 236 245
236 237 246
237 238 246
237 238 246
238 239 246
239 240 247
240 241 248
241 243 248
242 244 249
244 245 250
245 246 251
246 247 251
247 248 252
247 248 252
248 248 252
249 249 253
249 249 253
249 249 253
