P3
1 256
255
0 0 0
0 0 0
0 0 0
0 0 0
0 0 0
0 0 0
0 0 0
0 0 0
0 0 0
0 0 0
0 0 0
0 0 0
0 0 0
0 0 0
0 0 0
0 0 0
0 0 0
0 0 0
0 0 0
0 0 0
0 0 0
0 0 0
0 0 0
0 0 0
0 0 0
0 0 0
0 0 0
0 0 0
0 0 0
0 0 0
0 0 0
0 1 0
0 3 0
0 4 0
0 6 0
0 9 0
0 11 0
0 12 0
0 14 0
0 17 0
0 19 0
0 20 0
0 22 0
0 25 0
0 27 0
0 28 0
0 31 0
0 33 0
0 35 0
0 37 0
0 39 0
0 41 0
0 43 0
0 44 0
0 46 0
0 48 0
0 50 0
0 52 0
0 54 0
0 56 0
0 58 0
0 57 0
0 50 0
0 36 0
0 19 0
0 9 0
0 4 0
0 2 0
0 1 0
0 0 0
0 0 0
0 0 0
0 0 0
0 0 0
0 0 0
0 0 0
0 0 0
0 0 0
0 0 0
0 0 0
0 0 0
0 0 0
0 0 0
0 0 0
0 0 0
0 0 0
0 0 0
0 0 0
0 0 0
0 0 0
0 0 0
0 0 0
0 0 0
0 3 0
0 12 0
0 27 0
0 47 0
0 58 0
0 66 0
0 70 0
0 73 0
0 76 0
0 78 0
0 80 0
0 82 0
0 84 0
0 86 0
0 88 0
0 90 0
0 92 0
0 94 0
0 96 0
0 98 0
0 100 0
0 102 0
0 104 0
0 106 0
0 108 0
0 110 0
0 112 0
0 114 0
0 117 0
0 119 0
0 120 0
0 123 0
0 120 0
0 105 0
0 77 0
0 40 0
0 20 0
0 9 0
0 4 0
0 1 0
0 0 0
0 0 0
0 0 0
0 0 0
0 0 0
0 0 0
0 0 0
0 0 0
0 0 0
0 0 0
0 0 0
0 0 0
0 0 0
0 0 0
0 0 0
0 0 0
0 0 0
0 0 0
0 0 0
0 0 0
0 0 0
0 0 0
0 0 0
0 0 0
0 5 0
0 21 0
0 50 0
0 88 0
0 111 0
0 124 0
0 132 0
0 136 0
0 139 0
0 141 0
0 143 0
0 146 0
0 147 0
0 149 0
0 151 0
0 153 0
0 156 0
0 158 0
0 159 0
0 161 0
0 164 0
0 166 0
0 167 0
0 169 0
0 172 0
0 174 0
0 175 0
0 177 0
0 180 0
0 182 0
0 183 0
0 185 0
0 181 0
0 160 0
0 119 0
0 65 0
0 32 0
0 14 0
0 6 0
0 3 0
0 1 0
0 1 0
0 0 0
0 0 0
0 0 0
0 0 0
0 0 0
0 0 0
0 0 0
0 0 0
0 0 0
0 0 0
0 0 0
0 0 0
0 0 0
0 0 0
0 0 0
0 0 0
0 0 0
0 0 0
0 0 0
0 0 0
0 0 0
0 0 0
0 6 0
0 28 0
0 69 0
0 126 0
0 162 0
0 183 0
0 194 0
0 199 0
0 203 0
0 206 0
0 207 0
0 210 0
0 212 0
0 214 0
0 215 0
0 217 0
0 219 0
0 221 0
0 223 0
0 225 0
0 227 0
0 229 0
0 231 0
0 233 0
0 235 0
0 237 0
0 239 0
0 241 0
0 243 0
0 245 0
0 247 0
0 249 0
0 251 0
0 253 0
0 255 0
