P3
1 256
255
17 0 0
17 0 0
18 0 0
19 0 0
20 0 0
22 0 0
25 0 0
28 0 0
31 0 0
33 0 0
37 0 0
40 0 0
43 0 0
47 0 0
50 0 0
53 0 0
56 0 0
60 0 0
64 0 0
67 0 0
71 0 0
74 0 0
78 0 0
81 0 0
84 0 0
87 0 0
90 0 0
94 0 0
96 0 0
99 0 0
102 0 0
105 0 0
106 0 0
109 0 0
112 0 0
114 0 0
116 0 0
119 0 0
121 0 0
123 0 0
126 0 0
128 0 0
130 0 0
132 0 0
135 0 0
137 0 0
139 0 0
142 0 0
144 0 0
146 0 0
149 0 0
151 0 0
153 0 0
155 0 0
157 0 0
160 0 0
162 0 0
164 0 0
166 0 0
169 0 0
172 0 0
174 0 0
176 0 0
178 0 0
180 0 0
182 0 0
185 0 0
186 0 0
188 0 0
191 0 0
193 0 0
195 0 0
196 0 0
198 0 0
200 0 0
202 0 0
204 0 0
205 0 0
207 0 0
209 1 0
210 2 0
211 2 0
213 3 0
215 5 0
217 5 0
219 7 0
220 8 0
222 10 0
223 13 0
225 15 0
227 17 0
228 20 0
230 23 0
232 26 0
233 28 0
235 31 0
236 34 0
238 36 0
239 39 0
241 43 0
242 45 0
243 48 0
245 51 0
245 54 0
246 57 0
247 60 0
247 63 0
248 66 0
248 69 0
249 72 0
249 75 0
249 78 0
249 81 0
249 83 0
250 87 0
250 90 0
250 93 0
250 95 0
250 98 0
250 101 0
250 104 0
250 107 0
250 110 0
250 113 0
250 116 0
251 120 0
251 122 0
251 125 0
251 129 0
252 132 0
252 134 0
252 138 0
253 141 0
253 144 0
253 147 0
253 150 0
254 153 0
254 156 0
254 159 0
254 161 0
254 165 0
254 168 0
254 171 0
254 174 0
254 177 0
254 180 0
254 182 0
254 186 0
254 189 0
254 191 0
254 195 0
254 198 0
254 201 0
254 204 0
254 207 0
254 210 0
254 213 0
254 216 0
254 219 0
254 222 0
254 225 0
255 228 0
255 230 0
255 233 0
255 236 0
255 238 1
255 240 2
255 243 3
255 245 4
255 247 5
255 248 6
255 249 8
255 250 10
255 251 12
255 252 14
255 252 16
255 253 19
255 253 21
255 254 24
255 254 27
255 254 30
255 254 33
255 254 35
255 254 38
255 254 41
255 254 44
255 254 47
255 254 50
255 254 52
255 254 56
255 254 59
255 254 62
255 254 65
255 254 68
255 254 71
255 254 73
255 254 76
255 254 80
255 254 82
255 254 85
255 254 88
255 255 91
255 255 94
255 255 97
255 255 100
255 255 103
255 255 106
255 255 109
255 255 112
255 255 115
255 255 118
255 255 121
255 255 124
255 255 127
255 255 131
255 255 133
255 255 136
255 255 139
255 255 142
255 255 145
255 255 148
255 255 151
255 255 154
255 255 157
255 255 160
255 255 163
255 255 166
255 255 169
255 255 172
255 255 175
255 255 178
255 255 181
255 255 184
255 255 187
255 255 190
255 255 193
255 255 196
255 255 199
255 255 202
255 255 206
255 255 209
255 255 211
255 255 214
255 255 218
255 255 220
255 255 223
255 255 226
255 255 228
255 255 231
255 255 233
255 255 235
255 255 237
255 255 238
255 255 239
255 255 240
255 255 240
