P3
1 256
255
4 0 0
7 0 0
10 0 0
13 0 0
15 0 0
17 0 0
20 0 0
23 0 0
27 0 0
30 0 0
33 0 0
36 0 0
39 0 0
42 0 0
44 0 0
47 0 0
50 0 0
53 0 0
56 0 0
59 0 0
63 0 0
66 0 0
69 0 0
72 0 0
75 0 0
78 0 0
80 0 0
83 0 0
85 0 0
88 0 0
91 0 0
95 0 0
99 0 0
101 0 0
103 0 0
106 0 0
109 0 0
112 0 0
115 0 0
119 0 0
123 0 0
126 0 0
128 0 0
131 0 0
134 0 0
137 0 0
140 0 0
143 0 0
146 0 0
149 0 0
152 0 0
155 0 0
158 0 0
161 0 0
164 0 0
167 0 0
170 0 0
173 0 0
176 0 0
179 0 0
182 0 0
185 0 0
188 0 0
191 0 0
194 0 0
197 0 0
200 0 0
203 0 0
206 0 0
209 0 0
212 0 0
216 0 0
219 0 0
222 0 0
225 0 0
228 0 0
231 0 0
234 0 0
237 0 0
240 0 0
242 0 0
244 0 0
247 0 0
251 0 0
253 2 0
254 4 0
254 6 0
255 9 0
255 12 0
255 14 0
255 16 0
255 19 0
255 22 0
255 25 0
255 29 0
255 32 0
255 35 0
255 38 0
255 41 0
255 43 0
255 46 0
255 49 0
255 52 0
255 55 0
255 58 0
255 61 0
255 65 0
255 68 0
255 71 0
255 74 0
255 77 0
255 79 0
255 82 0
255 84 0
255 87 0
255 90 0
255 93 0
255 97 0
255 100 0
255 102 0
255 105 0
255 108 0
255 111 0
255 114 0
255 117 0
255 121 0
255 125 0
255 127 0
255 130 0
255 132 0
255 135 0
255 138 0
255 141 0
255 144 0
255 147 0
255 150 0
255 153 0
255 156 0
255 159 0
255 162 0
255 165 0
255 168 0
255 171 0
255 174 0
255 177 0
255 180 0
255 183 0
255 186 0
255 189 0
255 192 0
255 195 0
255 198 0
255 201 0
255 204 0
255 207 0
255 210 0
255 214 0
255 217 0
255 220 0
255 223 0
255 226 0
255 229 0
255 232 0
255 235 0
255 238 0
255 241 0
255 243 0
255 245 0
255 249 0
255 252 1
255 253 3
255 254 5
255 255 7
255 255 10
255 255 13
255 255 15
255 255 17
255 255 20
255 255 24
255 255 27
255 255 30
255 255 33
255 255 36
255 255 39
255 255 42
255 255 45
255 255 47
255 255 50
255 255 53
255 255 56
255 255 60
255 255 63
255 255 66
255 255 69
255 255 72
255 255 75
255 255 78
255 255 81
255 255 83
255 255 85
255 255 88
255 255 92
255 255 96
255 255 99
255 255 101
255 255 104
255 255 106
255 255 109
255 255 112
255 255 116
255 255 119
255 255 123
255 255 126
255 255 129
255 255 131
255 255 134
255 255 137
255 255 140
255 255 143
255 255 146
255 255 149
255 255 152
255 255 155
255 255 158
255 255 161
255 255 164
255 255 167
255 255 170
255 255 173
255 255 176
255 255 179
255 255 182
255 255 185
255 255 188
255 255 191
255 255 194
255 255 197
255 255 200
255 255 203
255 255 206
255 255 209
255 255 213
255 255 216
255 255 219
255 255 222
255 255 225
255 255 228
255 255 231
255 255 234
255 255 237
255 255 240
255 255 242
255 255 244
255 255 248
255 255 251
255 255 255
