P3
1 256
255
4 0 0
7 0 0
10 0 0
13 0 0
15 0 0
17 0 0
20 0 0
23 0 0
27 0 0
30 0 0
33 0 0
36 0 0
39 1 0
42 2 0
44 3 0
47 4 0
50 4 0
53 4 0
56 4 0
59 4 0
63 4 0
66 4 0
69 4 0
72 4 0
75 4 0
78 4 0
80 4 0
83 4 0
85 5 0
88 6 0
91 7 0
95 8 0
99 8 0
101 8 0
103 8 0
106 8 1
109 8 3
112 8 4
115 8 4
119 8 4
123 8 4
126 8 4
128 8 4
131 8 4
134 9 4
137 10 4
140 11 4
143 12 4
146 12 4
149 12 4
152 12 4
155 12 4
158 12 4
161 12 4
164 12 4
167 12 4
170 12 4
173 12 4
176 12 4
179 12 4
182 14 4
185 15 4
188 15 4
191 16 4
194 16 4
197 16 4
200 16 4
203 16 5
206 16 7
209 16 8
212 16 8
215 16 8
217 16 8
218 16 8
219 16 8
220 16 8
221 18 8
222 19 8
222 19 8
222 20 8
223 20 8
223 20 8
223 20 8
223 20 8
223 20 8
223 20 8
223 20 8
223 20 8
223 20 8
223 19 8
223 19 8
223 20 8
223 23 8
223 26 8
223 29 8
224 32 8
226 35 8
226 38 9
226 41 10
227 43 11
227 46 12
227 49 12
227 52 12
227 55 12
227 58 12
227 61 12
227 65 12
227 68 12
227 71 12
227 74 12
227 77 12
227 79 12
227 82 12
227 84 12
227 87 12
227 90 12
227 93 12
227 97 12
227 100 12
227 102 12
227 105 12
227 108 12
227 111 12
228 114 12
230 117 12
230 121 12
230 125 12
231 127 12
231 130 14
231 132 15
231 135 15
231 138 16
231 141 16
231 144 16
231 147 16
231 150 16
231 153 16
231 156 16
231 159 16
231 162 16
231 165 16
231 168 16
231 171 16
232 174 16
234 177 16
234 180 16
234 183 16
235 186 16
235 189 16
235 192 16
235 195 16
235 198 16
235 201 16
235 204 16
235 207 16
235 210 16
235 214 16
235 218 16
235 221 17
235 224 18
235 226 19
235 226 20
235 226 20
236 227 20
238 227 20
238 228 20
238 229 20
239 230 20
239 230 20
239 231 20
239 231 20
239 231 20
239 231 20
239 231 20
239 231 20
239 231 19
239 231 20
239 231 22
239 231 24
239 231 27
239 231 30
239 232 33
239 233 36
239 234 39
240 234 42
241 235 45
242 235 47
242 235 50
243 235 53
243 235 56
243 235 60
243 235 63
243 235 66
243 235 69
243 235 72
243 235 75
243 236 78
243 237 81
243 238 83
243 238 85
243 239 88
243 239 92
243 239 96
243 239 99
244 239 101
245 239 104
246 239 106
247 239 109
247 239 112
247 239 116
247 239 119
247 239 123
247 240 126
247 241 129
247 242 131
247 242 134
247 243 137
247 243 140
247 243 143
247 243 146
247 243 149
247 243 152
247 243 155
247 243 158
248 243 161
249 243 164
250 243 167
251 244 170
251 246 173
251 247 176
251 247 179
251 247 182
251 247 185
251 247 188
251 247 191
251 247 194
251 247 197
251 247 200
251 247 203
251 247 206
251 247 209
251 247 213
251 247 216
251 248 219
251 250 222
252 251 225
253 251 228
254 251 231
255 251 234
255 251 237
255 251 240
255 251 242
255 251 244
255 251 248
255 251 251
255 251 255
