P3
1 256
255
4 0 0
7 0 0
10 0 0
13 0 0
15 0 0
17 0 0
20 0 0
23 0 0
27 1 0
30 2 0
33 3 0
36 4 0
39 4 0
42 4 0
44 4 0
47 5 0
50 7 0
53 8 0
56 8 0
59 8 0
63 9 0
66 10 0
69 11 0
72 12 0
75 12 0
78 13 0
80 14 0
83 15 0
85 16 0
88 16 0
91 17 0
95 18 0
99 19 0
101 20 0
103 20 0
106 20 1
109 20 3
112 21 4
115 22 4
119 23 4
123 24 4
126 24 4
128 25 4
131 26 4
134 27 4
137 28 4
140 28 4
143 28 4
146 29 4
149 30 4
152 30 4
155 31 4
158 32 4
161 32 4
164 32 4
167 33 4
170 34 4
173 35 4
176 35 4
179 36 4
182 37 4
185 38 4
188 38 4
191 39 4
194 40 4
197 41 4
200 41 4
203 42 5
206 43 7
209 44 8
212 44 8
215 45 8
217 46 8
218 47 8
219 47 8
220 48 8
221 48 8
222 49 8
222 49 8
222 50 8
223 52 8
223 52 8
223 52 8
223 53 8
223 54 8
223 55 8
223 56 8
223 56 8
223 57 8
223 57 8
223 57 8
223 57 8
223 58 8
223 59 8
223 60 8
224 60 8
226 61 8
226 62 9
226 63 10
227 64 11
227 64 12
227 65 12
227 65 12
227 66 12
227 68 12
227 69 12
227 69 12
227 70 12
227 72 12
227 73 12
227 75 12
227 78 12
227 81 12
227 83 12
227 85 12
227 86 12
227 89 12
227 92 12
227 94 12
227 96 12
227 98 12
227 101 12
227 103 12
228 106 12
230 109 12
230 111 12
230 113 12
231 115 12
231 117 14
231 119 15
231 121 15
231 123 16
231 126 16
231 128 16
231 131 16
231 133 16
231 136 16
231 138 16
231 140 16
231 142 16
231 145 16
231 147 16
231 149 16
232 151 16
234 154 16
234 156 16
234 159 16
235 162 16
235 165 16
235 166 16
235 168 16
235 170 16
235 173 16
235 174 16
235 176 16
235 178 16
235 181 16
235 184 16
235 187 17
235 189 18
235 191 19
235 193 20
235 195 20
236 197 20
238 198 20
238 198 20
238 198 20
239 199 20
239 200 20
239 201 20
239 201 20
239 202 20
239 202 20
239 203 20
239 203 20
239 204 19
239 205 20
239 206 22
239 206 24
239 207 27
239 208 30
239 209 33
239 209 36
239 210 39
240 210 42
241 211 45
242 211 47
242 212 50
243 213 53
243 214 56
243 214 60
243 214 63
243 215 66
243 216 69
243 216 72
243 217 75
243 218 78
243 218 81
243 218 83
243 219 85
243 220 88
243 221 92
243 222 96
243 222 99
244 223 101
245 224 104
246 225 106
247 226 109
247 226 112
247 227 116
247 227 119
247 227 123
247 227 126
247 227 129
247 227 131
247 228 134
247 230 137
247 230 140
247 230 143
247 231 146
247 232 149
247 233 152
247 234 155
247 234 158
248 235 161
249 235 164
250 235 167
251 236 170
251 238 173
251 238 176
251 238 179
251 239 182
251 239 185
251 240 188
251 241 191
251 242 194
251 242 197
251 243 200
251 243 203
251 243 206
251 244 209
251 245 213
251 246 216
251 247 219
251 247 222
252 248 225
253 249 228
254 250 231
255 251 234
255 251 237
255 251 240
255 251 242
255 252 244
255 253 248
255 254 251
255 255 255
