P3
1 256
255
81 36 8
83 37 8
85 38 8
86 39 8
88 40 8
89 41 8
91 41 8
94 42 8
96 43 8
97 44 8
99 44 8
100 45 8
102 46 8
103 47 8
105 47 8
107 48 8
109 50 8
111 51 8
113 51 8
115 52 8
118 53 8
119 54 8
120 55 8
121 56 8
123 56 8
124 57 8
125 57 8
126 57 8
128 58 9
129 59 10
130 60 11
131 60 12
132 61 12
133 62 12
134 63 12
135 64 12
137 64 12
138 65 12
139 65 12
140 66 12
141 68 12
142 68 12
142 68 12
143 69 12
145 70 12
146 71 12
146 72 12
147 73 12
149 74 12
150 75 12
152 76 12
153 77 12
154 77 12
155 78 12
156 79 12
157 80 12
159 81 12
160 81 12
161 81 12
162 82 12
163 84 12
164 85 12
166 85 12
167 85 12
169 85 12
170 86 12
172 87 12
173 88 12
174 89 12
175 89 12
176 89 12
177 90 12
178 92 12
179 93 12
180 93 12
181 94 12
182 96 12
183 97 12
184 97 12
185 97 12
186 98 12
187 99 12
188 100 12
189 101 12
190 101 12
191 102 12
192 103 12
193 104 12
194 105 12
195 105 12
196 106 12
197 107 12
199 108 12
200 109 12
201 110 12
202 111 12
202 112 12
203 113 12
203 113 12
204 113 12
205 113 12
206 114 13
206 114 14
206 115 15
207 116 16
208 117 16
208 118 16
209 119 16
210 120 16
210 121 16
210 121 16
211 122 16
212 123 16
213 124 16
213 124 17
214 125 18
214 126 19
215 127 20
215 127 20
216 128 20
217 129 20
218 130 20
218 130 20
219 131 20
220 132 20
221 133 20
222 134 20
222 135 20
222 136 22
223 137 23
223 137 23
224 138 24
226 140 26
226 142 27
226 144 27
227 145 28
227 146 30
227 147 31
227 148 31
227 149 32
228 150 34
229 151 35
230 152 35
230 153 36
231 153 38
232 154 39
233 154 39
234 155 40
234 157 41
235 158 42
235 158 42
235 159 43
236 161 44
237 162 45
238 162 46
238 162 47
239 163 48
239 164 49
239 165 50
239 166 51
240 167 52
241 168 53
242 169 55
242 170 56
243 171 57
243 172 58
243 173 59
243 174 60
243 174 61
243 175 62
243 176 63
243 177 64
244 178 65
245 179 66
246 180 67
247 181 68
247 182 69
247 182 70
247 182 71
247 183 72
247 185 73
247 186 74
247 186 75
247 187 76
248 189 77
249 190 78
250 191 79
251 192 80
251 193 81
251 194 82
251 194 83
251 194 84
251 196 85
251 197 86
251 197 87
251 198 88
252 200 89
253 201 90
254 201 91
255 202 92
255 203 93
255 204 94
255 204 95
255 205 96
255 206 97
255 207 98
255 208 99
255 209 100
255 210 101
255 211 102
255 211 103
255 212 104
255 213 105
255 214 106
255 215 107
255 216 108
255 217 109
255 218 110
255 219 111
255 220 112
255 221 113
255 222 114
255 222 115
255 223 116
255 224 117
255 225 118
255 226 119
255 227 120
255 228 121
255 229 122
255 230 123
255 230 124
255 231 125
255 232 126
255 233 127
255 234 128
255 235 129
255 236 130
255 237 131
255 238 132
255 238 133
255 239 134
255 239 135
255 240 136
255 242 137
255 243 138
255 243 140
255 244 141
255 246 142
255 247 143
255 247 144
255 248 145
255 250 146
255 251 147
255 251 148
255 251 150
