P3
1 256
255
0 0 0
2 1 0
4 3 1
5 4 2
8 5 3
10 7 3
12 8 3
14 10 4
16 11 5
18 13 6
20 14 7
23 16 7
25 18 8
26 19 9
29 20 10
31 22 10
33 23 11
35 25 11
37 26 12
39 28 13
41 29 14
44 31 14
46 33 15
47 34 16
50 35 17
52 37 17
54 38 18
56 39 18
58 41 19
60 43 20
62 44 21
65 46 22
66 47 22
68 49 23
71 50 24
73 52 24
75 53 25
77 54 25
79 56 26
81 58 27
83 59 28
85 61 29
87 62 29
89 64 30
92 65 31
94 66 31
96 68 32
98 69 33
100 71 33
102 72 34
104 74 35
106 76 36
108 77 36
110 78 37
112 80 37
115 81 38
117 83 39
119 84 40
121 86 40
123 87 41
125 89 42
127 91 43
129 92 44
131 93 44
133 95 44
136 96 45
138 98 46
140 99 47
142 101 47
144 102 48
146 104 49
148 106 50
150 107 51
152 108 51
154 110 51
157 111 52
159 113 53
160 114 54
162 116 55
167 117 55
169 119 56
169 120 57
170 122 58
171 123 59
171 125 59
172 126 60
173 127 60
174 129 60
174 131 60
175 132 60
176 134 60
177 135 60
178 137 60
180 138 60
180 138 60
180 138 60
181 139 60
182 140 60
183 141 60
184 141 60
185 142 60
185 142 60
186 143 60
187 143 60
188 144 60
189 144 60
190 145 60
191 146 60
191 146 60
192 146 60
193 147 60
194 148 60
195 149 61
195 149 62
196 149 63
197 149 63
198 150 64
199 151 65
200 152 65
201 152 65
202 153 66
202 153 66
203 154 66
203 154 66
204 155 66
206 155 66
207 156 67
208 157 67
208 157 67
209 157 67
210 158 68
211 159 68
212 160 68
212 160 68
213 160 69
213 160 69
214 161 69
216 162 69
217 163 69
218 163 70
219 164 70
219 164 70
220 165 70
220 165 70
221 165 71
222 166 71
223 167 71
224 168 71
225 168 71
226 168 72
227 169 72
228 170 72
228 171 73
228 171 73
229 171 73
229 171 73
229 172 73
229 173 74
229 174 74
229 174 74
229 175 74
229 175 74
229 175 74
229 176 75
229 176 75
229 177 75
229 178 76
229 179 76
229 179 76
229 179 77
230 180 78
230 181 81
230 181 83
230 182 86
230 182 88
230 182 89
230 183 91
230 184 93
230 184 94
230 185 95
230 186 97
230 186 99
230 186 100
230 187 102
230 187 103
230 188 104
231 189 106
231 190 108
231 190 109
231 190 110
231 191 112
231 192 114
231 192 115
231 193 117
231 193 118
231 193 119
231 194 121
231 195 123
231 195 124
231 196 125
231 197 127
231 197 129
231 197 130
232 198 132
232 198 133
232 199 134
232 200 136
232 201 138
232 201 139
232 201 140
232 202 142
232 202 143
232 203 145
232 203 147
232 204 148
232 204 149
232 205 151
232 206 153
233 206 154
233 207 155
233 208 157
233 208 158
234 208 160
235 209 162
236 209 163
236 210 164
237 211 166
238 213 168
239 215 169
239 216 170
240 217 172
240 219 173
241 221 175
242 222 177
242 223 182
243 225 185
244 227 189
245 229 192
245 230 195
246 231 199
247 233 202
247 235 205
248 236 208
248 237 212
249 239 215
250 241 218
251 243 222
251 244 225
252 245 228
253 247 231
254 249 235
254 250 238
254 252 241
255 253 245
255 255 248
255 255 252
