P3
1 256
255
121 0 0
121 1 0
122 3 0
123 4 0
124 5 0
124 6 0
126 8 0
127 9 0
127 10 0
128 11 0
130 12 0
131 13 0
132 15 0
133 16 0
134 16 0
135 17 0
137 19 0
138 20 0
139 21 0
140 23 0
141 24 0
141 25 0
142 26 0
143 27 0
145 29 0
145 30 0
146 31 0
147 32 0
148 33 0
149 34 0
150 35 0
151 36 0
152 37 0
154 39 0
154 40 0
155 41 0
156 42 0
157 43 0
158 44 0
159 46 0
161 48 0
161 49 0
162 50 0
163 51 0
165 52 0
165 53 0
166 55 0
167 56 0
168 56 0
169 57 0
170 59 0
171 60 0
172 61 0
174 63 0
174 64 0
175 64 0
176 66 0
177 67 0
178 68 0
179 70 0
181 72 0
181 72 0
182 73 0
183 74 0
184 76 0
185 78 0
186 79 0
187 80 0
188 80 0
189 81 0
191 83 0
192 84 0
193 85 0
194 86 0
194 87 0
195 89 0
196 91 0
197 92 0
198 93 0
198 93 0
200 95 0
201 96 0
202 98 0
203 100 0
204 100 0
205 101 0
206 102 0
208 104 0
208 104 0
209 105 0
211 106 0
212 107 0
213 109 0
214 111 0
214 112 0
215 113 0
216 114 0
217 115 0
218 116 0
220 118 0
221 120 0
221 120 0
222 121 0
224 123 0
225 125 0
226 127 0
226 128 0
227 129 0
227 130 0
229 131 0
230 132 0
231 133 0
232 134 0
233 134 0
234 136 0
234 138 0
235 139 0
237 140 0
238 141 0
240 143 0
242 145 0
242 146 0
243 147 0
244 148 0
245 149 0
246 150 0
247 151 0
248 153 0
249 153 0
250 154 0
251 155 0
252 157 0
253 158 0
254 160 0
255 161 0
255 161 0
255 162 0
255 164 1
255 165 2
255 167 4
255 168 6
255 169 8
255 170 10
255 171 12
255 172 14
255 173 16
255 174 18
255 175 21
255 176 23
255 178 25
255 179 27
255 181 29
255 182 30
255 182 32
255 183 35
255 184 37
255 186 39
255 188 41
255 189 44
255 190 46
255 191 48
255 193 50
255 195 51
255 196 54
255 197 56
255 198 57
255 198 59
255 200 62
255 200 64
255 201 66
255 202 68
255 204 70
255 206 72
255 208 75
255 209 78
255 209 79
255 210 81
255 211 83
255 213 84
255 214 85
255 216 88
255 217 91
255 217 93
255 218 96
255 219 97
255 220 99
255 222 101
255 222 104
255 223 105
255 225 108
255 227 110
255 229 113
255 229 115
255 230 118
255 231 121
255 231 123
255 234 126
255 236 128
255 237 130
255 238 131
255 240 134
255 241 136
255 241 138
255 242 141
255 242 143
255 243 145
255 244 148
255 247 150
255 248 152
255 249 153
255 251 155
255 251 157
255 253 160
255 254 162
255 255 163
255 255 165
255 255 169
255 255 171
255 255 173
255 255 174
255 255 177
255 255 179
255 255 181
255 255 183
255 255 184
255 255 187
255 255 190
255 255 193
255 255 195
255 255 197
255 255 199
255 255 201
255 255 203
255 255 205
255 255 207
255 255 208
255 255 211
255 255 213
255 255 215
255 255 217
255 255 220
255 255 222
255 255 224
255 255 226
255 255 228
255 255 230
255 255 232
255 255 234
255 255 239
255 255 241
255 255 243
255 255 244
255 255 246
255 255 248
255 255 250
255 255 252
