P3
1 256
255
0 0 0
0 0 0
1 1 0
2 2 0
3 3 1
3 3 1
4 4 2
4 5 3
5 6 4
6 7 5
7 8 6
8 9 7
9 10 7
9 11 8
10 12 9
10 12 9
11 13 10
12 15 11
13 16 12
14 17 13
14 18 14
15 19 15
16 20 15
17 21 16
18 22 16
18 22 16
19 24 16
19 25 16
19 26 16
19 27 16
19 28 16
19 29 16
19 30 16
19 31 16
19 32 16
19 33 16
19 34 16
19 35 16
19 36 17
19 37 17
19 38 17
19 39 17
19 40 17
19 41 17
19 42 17
19 43 17
19 44 17
19 45 17
19 46 17
19 47 17
19 48 17
19 49 17
19 50 17
19 51 17
19 52 17
19 53 17
19 54 17
19 55 17
19 56 17
19 57 17
19 58 18
19 59 18
19 60 18
19 62 18
19 62 18
19 63 18
19 64 18
19 65 18
20 66 18
20 67 18
20 69 18
20 70 18
20 71 18
20 72 18
20 72 18
20 73 18
20 74 18
20 75 18
20 76 18
20 78 18
20 79 18
20 80 18
20 81 18
20 82 19
20 82 19
20 83 19
20 84 19
20 85 19
20 87 19
20 88 19
20 89 19
20 90 19
20 91 19
20 92 19
20 92 19
20 93 19
20 94 19
21 96 19
21 97 19
21 98 19
21 99 19
21 100 19
21 101 19
21 101 19
21 102 19
21 104 19
21 105 19
21 106 20
21 107 20
21 108 20
21 109 20
21 110 20
21 111 20
21 111 20
21 113 20
21 114 20
21 115 20
21 116 20
21 117 20
21 118 20
21 119 20
21 120 20
21 121 20
21 122 20
21 123 20
21 124 20
22 125 20
22 126 20
22 127 20
22 128 20
22 129 21
22 130 21
22 132 21
22 132 21
22 133 21
22 134 21
22 135 21
22 136 21
22 137 21
22 138 21
22 139 21
22 141 21
22 142 21
22 142 21
22 143 21
22 144 21
22 145 21
22 146 21
22 147 21
22 149 21
22 150 21
22 151 21
22 152 22
22 152 22
23 153 22
23 154 22
23 155 22
23 156 22
23 158 22
23 159 22
23 160 22
23 161 22
23 161 22
23 162 22
24 163 22
26 164 22
28 165 22
31 167 22
34 168 22
36 169 22
38 170 22
41 171 22
43 171 22
46 172 22
49 173 22
51 174 22
54 176 23
57 177 23
59 178 23
61 179 23
64 180 23
67 181 23
69 181 23
72 182 22
75 183 22
77 185 25
79 186 28
82 187 31
84 188 34
87 189 38
90 190 41
93 191 44
95 192 48
98 193 51
100 194 54
102 195 57
105 196 61
108 197 64
110 198 67
113 199 71
116 200 74
118 201 78
120 202 81
123 203 84
126 204 88
128 205 90
131 206 94
134 207 98
136 208 100
138 209 104
141 210 107
143 211 110
146 212 114
149 213 117
152 214 121
154 215 123
156 216 127
159 217 130
161 218 134
164 219 137
167 221 140
169 221 144
172 222 147
175 223 150
176 224 154
179 225 157
182 226 160
185 227 163
187 229 167
190 230 170
193 231 173
195 231 177
197 232 180
200 233 183
202 234 187
205 235 190
208 236 194
211 238 197
213 239 200
215 240 204
218 241 207
220 241 210
223 242 213
226 243 217
228 244 219
231 245 223
234 247 227
236 248 229
238 249 233
241 250 236
244 251 240
246 251 243
249 252 246
251 253 250
253 254 252
253 254 252
