P3
1 256
255
0 32 0
0 32 0
0 32 0
0 33 0
0 34 0
0 34 0
0 35 1
0 35 1
0 36 2
0 37 2
0 38 2
0 39 3
0 40 3
0 40 3
0 41 4
0 41 4
0 42 4
0 43 5
0 44 5
0 45 5
0 45 6
0 46 6
0 47 7
0 48 7
0 49 7
0 49 7
0 50 8
0 51 8
0 52 8
0 53 9
0 54 9
0 55 10
0 56 10
0 56 10
0 57 11
0 57 11
0 58 11
0 59 12
0 60 12
0 61 12
0 62 13
0 63 13
0 64 13
0 65 14
0 66 14
0 66 14
0 67 15
0 68 15
0 69 15
0 70 16
0 71 16
0 72 17
0 73 17
0 73 17
0 73 17
0 74 18
0 75 18
0 76 18
0 77 19
0 78 19
0 79 20
0 80 20
0 81 20
0 82 21
0 82 21
0 83 21
0 84 22
0 84 22
0 85 22
0 86 23
0 87 23
0 88 23
0 89 24
0 90 24
0 90 24
0 91 25
0 92 25
0 93 25
0 94 26
0 95 26
0 95 26
0 96 27
0 97 27
0 98 28
0 98 28
0 99 28
0 100 28
0 101 29
0 102 29
0 103 30
0 104 30
0 105 30
0 106 31
0 106 31
0 106 31
0 107 31
0 108 32
0 109 32
0 110 33
0 111 33
0 111 33
0 112 34
0 113 34
0 113 34
0 114 35
0 115 35
0 116 35
0 117 36
0 118 36
0 119 36
0 120 37
0 121 37
0 122 38
0 122 38
0 123 38
0 124 38
0 125 39
0 126 39
0 127 40
0 128 40
0 129 40
0 130 41
1 131 41
3 131 41
5 132 41
7 133 42
8 134 42
10 135 43
12 136 43
14 137 43
15 138 44
17 139 44
19 140 45
21 140 45
23 140 45
24 141 45
26 142 46
28 143 46
30 144 46
32 145 47
33 145 47
35 146 48
37 147 48
39 147 48
41 148 48
42 149 49
44 150 49
46 150 49
49 151 50
51 152 50
52 153 51
54 154 51
56 155 51
58 155 51
60 156 52
61 157 52
63 158 53
65 159 53
67 160 53
69 161 54
71 161 54
73 162 54
75 162 54
77 163 55
79 164 55
80 165 56
82 166 56
84 167 56
86 168 57
88 169 57
89 170 58
91 171 58
93 171 58
95 172 58
98 173 59
99 174 59
101 175 59
103 176 60
105 177 60
106 178 61
108 179 61
110 180 61
112 180 61
114 181 62
115 182 62
117 183 63
119 184 63
122 185 63
124 186 64
125 187 64
127 188 64
129 189 65
131 189 65
133 190 65
134 190 66
136 191 66
138 192 66
140 193 67
142 194 67
143 195 68
146 196 68
148 197 68
150 197 68
152 198 69
153 199 69
155 200 69
157 201 69
159 202 71
161 203 73
162 204 77
164 205 80
166 205 84
168 206 88
170 207 92
172 208 96
174 209 99
176 210 104
178 211 107
180 212 111
181 213 115
183 214 119
185 214 123
187 215 127
189 216 131
190 217 135
192 218 138
194 219 143
197 219 146
199 220 150
200 221 154
202 222 158
204 222 162
206 223 166
207 224 170
209 225 174
211 226 178
213 227 182
215 228 185
216 229 190
218 230 194
221 231 197
223 231 201
225 232 205
226 233 209
228 234 213
230 235 217
232 236 221
234 237 224
235 238 229
237 239 232
239 240 236
241 240 240
243 241 244
245 242 248
247 242 251
247 242 251
