P3
1 256
255
5 5 5
5 5 5
6 6 6
7 7 7
8 8 8
9 9 9
11 11 11
13 13 13
14 14 14
16 16 16
18 17 18
19 19 19
21 21 21
22 22 22
24 24 24
26 26 26
28 27 28
29 29 29
30 30 30
32 32 32
34 34 34
36 36 36
38 37 38
39 38 39
41 40 41
42 42 42
44 44 44
45 45 45
47 47 47
49 48 49
51 50 51
52 52 52
53 53 53
55 55 55
57 57 57
59 58 59
61 60 61
62 61 62
63 63 63
65 65 65
67 67 67
69 68 69
70 69 70
72 71 72
74 73 74
75 75 75
77 76 77
78 77 78
80 79 80
82 81 82
84 83 84
85 85 85
86 86 86
88 88 88
90 89 90
92 91 92
94 93 94
95 94 95
96 96 96
98 97 98
100 99 100
102 101 102
103 102 103
105 104 105
106 106 106
108 107 108
110 109 110
111 110 111
113 112 113
115 114 115
117 116 117
119 117 118
120 118 119
121 120 121
123 122 123
125 124 125
127 126 127
128 127 128
130 128 129
131 130 131
133 132 133
134 133 134
136 135 136
138 137 138
140 138 139
141 140 141
142 141 142
144 143 144
146 145 146
148 147 148
150 148 150
151 149 151
153 151 152
154 153 154
156 155 156
158 157 158
159 158 159
161 159 161
163 161 162
164 163 164
166 165 166
167 166 167
169 168 169
171 169 171
173 171 172
174 173 174
175 174 175
177 176 177
179 178 179
181 179 181
183 181 183
184 182 184
186 184 185
187 186 187
189 187 189
191 189 191
192 190 192
194 192 194
196 194 195
197 196 197
199 198 199
200 199 200
202 200 202
204 202 204
206 204 205
207 206 207
208 207 208
210 208 210
212 210 212
214 212 214
215 213 215
217 215 216
218 217 218
219 218 218
220 219 219
221 220 219
221 221 219
221 221 220
222 222 220
222 222 220
222 222 221
222 223 221
223 223 221
223 223 221
223 223 221
223 224 222
224 224 222
224 224 222
224 224 223
224 225 223
225 225 223
225 225 223
225 226 224
225 226 224
226 226 224
226 226 224
226 226 225
226 227 225
227 227 225
227 227 226
227 228 226
228 228 226
228 228 226
228 228 226
228 228 227
228 229 227
229 229 227
229 229 228
229 229 228
229 230 228
230 230 229
230 230 229
230 230 229
230 231 229
231 231 229
231 231 230
231 231 230
231 232 230
232 232 231
232 232 231
232 233 231
233 233 231
233 233 231
233 233 232
233 233 232
233 234 232
234 234 233
234 234 233
234 235 233
235 235 234
235 235 234
235 235 234
235 235 234
235 236 234
236 236 235
236 236 235
236 236 235
236 237 236
237 237 236
237 237 236
237 238 237
238 238 237
238 238 237
238 238 237
238 238 237
238 239 238
239 239 238
239 239 238
239 240 239
240 240 239
240 240 239
240 240 239
240 240 239
240 241 240
241 241 240
241 241 240
241 242 241
242 242 241
242 242 241
242 242 242
242 243 242
242 243 242
243 243 242
243 243 242
243 243 243
243 244 243
244 244 243
244 244 244
244 245 244
245 245 244
245 245 245
245 245 245
245 245 245
245 246 245
246 246 245
246 246 246
246 247 246
247 247 246
247 247 247
247 247 247
247 248 247
247 248 247
248 248 247
248 248 248
248 249 248
249 249 248
249 249 249
249 249 249
249 250 249
250 250 250
250 250 250
250 250 250
250 250 250
250 250 250
250 250 250
250 250 250
