P3
1 256
255
2 0 0
3 1 1
4 2 2
5 3 3
7 5 5
8 6 6
9 7 7
10 8 8
11 9 9
13 11 11
14 12 12
16 14 14
17 15 15
18 16 16
19 18 18
20 18 18
22 20 20
23 21 21
24 22 22
26 24 24
27 25 25
28 26 27
30 28 28
31 29 29
32 30 30
33 31 31
34 33 33
35 34 34
37 35 35
38 36 37
40 38 38
41 39 39
42 40 40
43 42 42
45 43 43
46 44 44
47 45 45
48 46 46
50 48 48
51 49 49
52 51 51
54 52 52
55 53 53
56 54 55
58 56 56
58 57 57
60 58 58
61 59 59
62 61 61
64 62 62
65 63 64
66 65 65
67 66 66
69 67 67
70 68 68
71 70 70
73 71 71
74 72 72
75 73 74
76 75 75
78 76 76
79 78 78
80 79 79
82 80 80
82 81 81
84 82 83
85 84 84
86 85 85
88 86 86
89 88 88
90 89 89
92 90 91
93 91 92
94 93 93
95 94 94
97 95 95
98 97 97
99 98 98
100 99 99
102 100 101
103 102 102
104 103 103
106 104 104
107 106 106
108 106 107
109 108 108
110 109 109
112 110 111
113 112 112
114 113 113
116 115 115
117 116 116
118 117 117
120 118 119
121 119 120
122 121 121
123 122 122
124 123 123
126 124 125
127 126 126
129 127 128
130 128 129
131 130 130
132 131 131
133 132 132
135 133 134
136 134 135
137 136 136
139 137 138
140 139 139
141 140 140
142 141 141
144 143 143
145 143 144
146 145 145
147 146 147
148 147 148
150 149 149
151 150 150
153 151 152
154 153 153
155 154 154
156 155 156
157 156 157
159 158 158
160 159 159
161 160 160
163 161 162
164 163 163
165 164 165
166 165 166
168 167 167
169 168 169
170 169 169
171 170 171
172 171 172
174 173 173
175 174 175
177 176 176
178 177 177
179 178 178
180 179 180
182 181 181
183 182 182
184 183 184
185 184 185
187 186 186
188 187 187
189 188 189
191 190 190
192 191 191
193 192 193
195 194 194
195 195 195
197 196 196
198 197 197
199 198 199
201 200 200
202 201 202
203 203 203
204 204 204
206 205 206
207 206 206
208 207 208
210 209 209
211 210 210
212 211 212
213 213 213
215 214 214
216 215 216
217 216 217
219 218 218
219 219 219
221 220 221
222 222 222
223 223 223
225 224 224
226 225 226
227 227 227
228 228 228
230 229 230
231 231 231
232 231 232
234 233 233
235 234 234
236 235 236
237 237 237
239 238 239
240 240 240
241 241 241
243 242 243
244 243 244
245 244 245
246 246 246
247 247 247
249 248 249
250 249 250
250 250 250
250 250 250
250 250 250
250 250 250
250 250 250
250 250 250
250 250 250
250 250 250
250 250 250
250 250 250
250 250 250
250 250 250
250 250 250
250 250 250
250 250 250
250 250 250
250 250 250
250 250 250
250 250 250
250 250 250
250 250 250
250 250 250
250 250 250
250 250 250
250 250 250
250 250 250
250 250 250
250 250 250
250 250 250
251 251 251
251 251 251
251 251 251
251 251 251
251 251 251
251 251 251
251 251 251
251 251 251
251 251 251
251 251 251
251 251 251
251 251 251
251 251 251
251 251 251
251 251 251
251 251 251
251 251 251
251 251 251
251 251 251
251 251 251
251 251 251
251 251 251
251 251 251
251 251 251
251 251 251
251 251 251
251 251 251
251 251 251
251 251 251
252 252 252
