P3
1 256
255
4 0 4
3 1 3
4 3 4
5 4 5
6 5 6
6 6 6
7 7 7
8 8 8
10 9 10
10 10 10
11 11 11
12 12 12
14 13 14
14 14 14
15 15 15
16 16 16
18 17 18
18 18 18
19 19 19
21 20 21
22 22 22
22 23 22
23 23 23
25 24 25
26 26 26
27 27 27
28 27 28
29 28 29
30 30 30
31 31 31
32 31 32
33 32 33
34 34 34
35 35 35
36 35 36
37 36 37
38 38 38
39 39 39
40 39 40
41 40 41
42 42 42
43 43 43
44 43 44
45 44 45
46 46 46
47 47 47
48 47 48
49 48 49
50 50 50
51 51 51
52 51 52
53 52 53
54 54 54
55 55 55
56 56 56
57 57 57
58 58 58
59 59 59
60 60 60
61 61 61
62 62 62
63 63 63
64 64 64
65 65 65
66 66 66
67 67 67
68 68 68
69 69 69
70 70 70
71 71 71
72 72 72
73 73 73
74 74 74
75 75 75
76 76 76
77 77 77
78 78 78
79 79 79
80 80 80
81 81 81
82 82 82
83 83 83
84 84 84
85 85 85
87 86 87
87 87 87
88 88 88
89 89 89
91 90 91
91 91 91
92 92 92
93 93 93
95 94 95
95 95 95
96 96 96
97 97 97
99 98 99
99 99 99
100 100 100
101 101 101
103 102 103
103 103 103
104 104 104
106 105 106
107 107 107
107 108 107
108 108 108
110 109 110
111 111 111
112 112 112
113 112 113
114 113 114
115 115 115
116 116 116
117 116 117
118 117 118
119 119 119
120 120 120
121 120 121
122 121 122
123 123 123
124 124 124
125 124 125
126 125 126
127 127 127
127 128 127
128 128 128
129 129 129
129 129 129
130 129 130
130 129 130
131 130 131
131 131 131
132 132 132
133 132 133
134 133 134
135 135 135
136 136 136
137 136 137
138 137 138
139 139 139
140 140 140
141 141 141
142 142 142
143 143 143
144 144 144
145 145 145
146 146 146
147 147 147
148 148 148
149 149 149
150 150 150
151 151 151
152 152 152
153 153 153
154 154 154
155 155 155
156 156 156
157 157 157
158 158 158
159 159 159
160 160 160
161 161 161
162 162 162
163 163 163
164 164 164
165 165 165
166 166 166
167 167 167
168 168 168
169 169 169
170 170 170
172 171 172
172 172 172
173 173 173
174 174 174
176 175 176
176 176 176
177 177 177
178 178 178
180 179 180
180 180 180
181 181 181
182 182 182
184 183 184
184 184 184
185 185 185
186 186 186
188 187 188
188 188 188
189 189 189
191 190 191
192 192 192
192 193 192
193 193 193
195 194 195
196 196 196
197 197 197
198 197 198
199 198 199
200 200 200
201 201 201
202 201 202
203 202 203
204 204 204
205 205 205
206 205 206
207 206 207
208 208 208
209 209 209
210 209 210
211 210 211
212 212 212
213 213 213
214 213 214
215 214 215
216 216 216
217 217 217
218 217 218
219 218 219
220 220 220
221 221 221
222 221 222
223 222 223
224 224 224
225 225 225
226 226 226
227 227 227
228 228 228
229 229 229
230 230 230
231 231 231
232 232 232
233 233 233
234 234 234
235 235 235
236 236 236
237 237 237
238 238 238
239 239 239
240 240 240
241 241 241
242 242 242
243 243 243
244 244 244
245 245 245
246 246 246
247 247 247
248 248 248
249 249 249
250 250 250
251 251 251
252 252 252
253 253 253
254 254 254
255 255 255
