P3
1 256
255
7 4 5
7 4 5
7 4 5
7 4 6
8 5 6
8 5 6
9 6 7
9 6 8
10 7 8
11 8 9
12 9 10
13 10 11
14 11 12
15 12 13
16 13 14
16 13 14
17 14 15
18 15 16
19 16 17
20 17 19
21 18 20
22 19 21
24 20 22
25 21 23
26 23 24
27 23 24
29 24 25
30 25 26
32 26 27
35 27 28
36 28 29
38 29 30
39 30 31
40 31 32
41 33 33
42 33 34
47 34 35
56 35 36
74 36 37
98 37 38
122 38 39
142 39 40
158 40 41
170 41 42
178 42 43
184 43 43
190 44 44
194 45 45
196 46 46
199 47 47
201 48 49
201 49 50
201 50 51
200 51 52
198 51 52
194 53 53
190 54 54
185 55 55
179 56 56
173 57 57
167 58 58
161 59 59
154 60 60
147 61 61
141 61 61
134 62 63
128 64 64
122 65 65
117 66 66
111 67 67
106 68 68
101 69 69
97 70 70
94 71 71
92 71 71
89 72 72
87 74 73
86 75 74
85 76 75
84 77 76
84 78 77
84 79 78
85 80 80
85 81 81
85 81 81
86 82 82
87 83 83
88 84 84
89 86 85
90 87 86
91 88 87
92 89 88
93 90 89
94 91 90
94 91 90
95 92 92
96 93 93
97 94 94
98 95 95
99 96 96
100 98 97
101 99 98
102 100 99
103 100 99
104 101 100
105 102 101
106 103 102
107 104 103
108 105 104
109 106 105
110 108 107
111 109 108
112 110 109
112 110 109
114 111 110
115 112 111
116 113 112
117 114 113
118 115 114
119 116 115
120 118 116
121 119 117
122 120 118
122 120 118
123 121 119
125 122 121
126 123 122
127 124 123
128 125 124
129 126 125
130 127 126
131 128 127
132 129 128
132 130 128
133 131 129
134 132 130
135 133 131
137 134 132
138 135 133
139 136 134
140 137 135
141 138 136
142 139 138
142 140 138
143 141 139
144 142 140
145 143 141
146 144 142
147 145 143
149 146 144
150 147 145
151 148 146
152 149 147
152 150 147
153 151 148
154 152 149
155 153 150
156 154 152
157 155 153
158 156 154
159 157 155
161 158 156
161 158 156
162 160 157
163 161 158
164 162 159
165 163 160
166 164 161
167 165 162
168 166 163
169 167 164
170 168 165
171 168 166
172 169 167
173 171 168
174 172 169
175 173 170
176 174 171
177 175 172
178 176 173
179 177 174
180 178 175
181 178 175
182 179 176
183 180 177
184 181 178
185 182 179
186 184 181
187 185 182
188 186 183
189 187 184
190 188 185
190 188 185
192 189 186
193 190 187
194 191 188
195 192 189
196 194 190
197 195 191
198 196 192
199 197 193
200 198 194
200 198 195
201 199 196
202 200 197
203 201 198
205 202 199
206 204 200
207 205 201
208 206 202
209 207 203
209 207 203
210 208 204
211 209 205
212 210 206
213 211 207
214 212 208
216 213 210
217 214 211
218 215 212
219 217 213
219 217 213
220 218 214
221 219 215
222 220 216
223 221 217
224 222 218
225 223 219
227 224 220
228 225 221
229 226 222
229 227 222
230 228 224
231 229 225
232 230 226
233 231 227
234 232 228
235 233 229
236 234 230
237 235 231
239 236 232
239 237 232
240 238 233
241 239 234
242 240 235
243 241 236
244 242 237
245 243 238
246 244 239
246 244 240
247 245 240
247 245 240
247 245 241
248 246 241
248 246 241
248 246 241
