P3
1 256
255
0 2 0
0 2 0
0 3 1
0 3 1
1 4 2
1 4 2
1 4 2
2 5 3
2 6 4
3 6 5
4 7 5
5 8 6
6 8 7
6 9 8
7 10 8
7 10 8
8 10 9
9 11 10
10 12 11
10 13 11
11 13 12
12 14 13
13 15 14
14 16 14
15 16 15
15 16 15
15 17 16
16 18 17
17 18 17
18 19 18
19 20 19
19 21 20
20 21 20
21 22 21
22 23 22
22 23 22
23 23 23
23 24 23
24 25 24
25 26 25
26 26 26
27 27 26
28 28 27
28 29 28
29 29 29
29 29 29
30 30 29
31 31 30
32 31 31
32 32 32
33 33 32
34 34 33
35 34 34
36 35 35
36 35 35
36 36 35
37 36 36
38 37 37
39 38 38
40 39 38
40 39 39
41 40 40
42 41 41
43 42 41
43 42 41
44 42 42
45 43 43
45 44 44
46 44 44
47 45 45
48 46 46
49 47 47
49 47 47
50 48 48
50 48 48
51 49 49
52 49 50
53 50 50
53 51 51
54 52 52
55 52 53
56 53 53
57 54 54
58 55 55
58 55 55
58 55 56
59 56 56
60 57 57
61 57 58
62 58 59
62 59 59
63 60 60
64 60 61
65 61 61
65 61 61
65 61 62
66 61 63
67 62 64
68 62 65
69 63 66
70 63 67
71 64 68
72 65 69
72 66 69
73 67 70
74 68 72
75 69 73
77 70 74
78 72 75
79 73 77
81 74 78
82 75 79
83 77 80
83 77 81
85 79 82
86 80 83
87 81 84
88 82 86
90 84 87
91 85 88
92 86 90
93 87 91
95 89 92
95 89 93
97 91 94
98 92 95
99 93 96
100 95 98
101 96 99
103 97 100
104 98 101
105 100 103
106 101 104
107 102 104
108 103 106
109 104 107
111 105 108
112 107 109
113 108 111
115 109 112
116 110 113
117 112 114
118 113 116
119 114 116
120 115 118
121 116 119
122 118 120
124 119 121
125 120 123
126 122 124
127 123 125
129 124 126
130 125 127
131 126 128
132 127 129
133 128 130
134 130 132
135 131 133
137 132 134
138 134 136
139 135 137
140 136 138
141 137 139
142 138 140
144 140 141
145 141 142
146 142 144
147 143 145
148 145 146
149 146 148
150 147 149
151 149 151
151 151 153
152 153 155
154 155 157
155 156 158
157 159 160
159 161 162
161 163 165
163 165 166
165 167 168
168 169 170
170 171 172
172 174 175
174 176 176
176 178 178
178 180 180
181 182 183
183 184 185
185 186 186
187 188 188
189 191 191
191 193 193
194 195 195
196 197 196
198 199 198
200 201 201
203 204 203
205 206 205
207 208 206
209 210 209
211 212 211
213 214 213
216 217 215
218 218 217
220 220 219
222 222 221
224 224 223
225 225 224
226 226 225
227 227 227
227 227 227
228 228 227
228 229 228
229 229 229
230 230 229
230 231 230
231 231 231
231 232 231
232 232 232
233 233 233
233 233 233
233 234 233
234 234 234
234 235 234
235 235 235
236 236 236
236 236 236
237 237 237
237 238 237
238 238 238
238 238 238
239 239 239
239 239 239
240 240 240
240 241 240
241 241 241
242 242 242
242 242 242
243 243 243
243 243 243
243 243 243
244 244 244
245 245 245
245 245 245
246 246 246
246 246 246
247 247 247
248 248 248
248 248 248
249 249 249
249 249 249
249 249 249
250 249 250
250 250 250
250 250 250
