P3
1 256
255
0 4 158
0 4 158
0 5 157
0 5 156
0 6 155
0 6 153
0 6 151
0 7 148
0 8 146
0 9 144
0 10 142
0 11 139
0 12 137
0 13 136
0 14 133
0 14 131
0 15 129
0 16 127
0 17 125
0 19 123
0 20 121
0 21 119
0 22 117
0 23 115
0 24 113
0 25 111
0 26 109
0 27 108
0 28 106
0 29 103
0 30 101
0 31 99
0 32 98
0 34 96
0 35 94
0 35 92
0 36 89
0 37 88
0 38 86
0 40 84
0 41 82
0 42 80
0 43 78
0 44 76
0 45 74
0 46 72
0 47 70
0 48 68
0 49 66
0 50 64
0 51 62
0 52 60
0 53 59
0 54 56
0 55 54
0 56 52
0 57 50
0 58 49
0 59 47
0 60 45
0 61 42
0 62 40
0 63 39
0 65 37
0 65 35
0 66 33
0 67 31
0 68 29
0 70 27
0 71 25
0 72 23
0 73 21
0 74 20
0 75 18
0 76 16
0 77 14
0 78 12
0 79 11
0 79 9
1 80 8
1 81 6
2 81 5
2 82 4
3 82 3
4 82 3
5 82 2
6 82 2
7 81 1
9 81 1
11 80 0
13 79 0
14 78 0
16 77 0
18 76 0
20 76 0
23 75 0
24 74 0
26 73 0
29 72 0
31 71 0
33 70 0
35 69 0
37 67 0
39 67 0
41 66 0
44 65 0
45 64 0
47 62 0
49 61 0
52 60 0
54 59 0
55 58 0
58 57 0
60 56 0
62 55 0
64 54 0
66 53 0
68 52 0
70 51 0
73 49 0
75 48 0
76 47 0
79 46 0
81 46 0
83 44 0
85 43 0
87 42 0
89 41 0
91 40 0
94 39 0
95 38 0
97 36 0
99 35 0
101 35 0
104 34 0
105 33 0
107 32 0
110 31 0
112 29 0
114 28 0
116 27 0
118 26 0
120 25 0
122 24 0
125 23 0
126 22 0
128 21 0
131 20 0
133 19 0
135 17 0
137 16 0
139 15 0
141 14 0
143 14 0
146 13 0
147 12 0
149 11 0
152 10 0
154 9 0
156 7 0
157 6 0
160 6 0
162 6 0
164 5 0
166 4 0
168 4 0
170 4 0
172 5 0
174 6 0
176 7 0
177 8 0
178 10 0
179 12 0
180 14 0
180 17 0
181 18 0
182 21 0
182 24 0
182 27 0
182 29 0
183 32 0
183 35 0
183 37 0
183 40 0
183 43 0
183 45 0
183 48 0
183 51 0
183 53 0
184 55 0
184 58 0
184 61 0
184 63 0
184 66 0
184 69 0
184 71 0
184 74 0
184 77 0
184 79 0
185 82 0
185 85 0
185 88 0
185 90 0
185 93 0
185 96 0
185 98 0
185 101 0
185 104 0
185 106 0
186 109 0
186 112 0
186 114 0
186 117 0
186 120 0
186 123 0
186 125 0
186 128 0
186 131 0
186 133 0
187 135 0
187 138 0
187 140 0
187 143 0
187 146 0
187 148 0
187 151 0
187 154 0
187 157 0
187 159 0
188 160 0
188 162 0
188 164 0
188 165 0
188 166 0
188 168 0
188 169 0
188 170 0
188 172 0
188 173 0
189 174 0
189 175 0
189 176 0
189 177 0
189 178 0
189 179 0
189 180 0
190 181 0
190 181 0
191 182 0
192 182 0
193 183 0
194 183 0
195 183 0
196 183 0
196 183 0
196 183 0
