P3
1 256
255
0 0 251
0 1 247
0 3 244
0 4 241
0 4 239
0 5 236
0 6 233
0 7 230
0 9 227
0 10 224
0 11 221
0 12 218
0 12 215
0 13 211
0 14 208
0 15 205
0 16 202
0 17 199
0 18 196
0 19 193
0 21 190
0 22 187
0 23 184
0 24 181
0 24 178
0 25 175
0 26 172
0 27 169
0 29 166
0 30 163
0 31 160
0 32 157
0 34 154
0 35 151
0 35 148
0 36 145
0 37 142
0 38 139
0 39 136
0 40 133
0 41 131
0 42 128
0 43 125
0 44 121
0 46 118
0 47 114
0 49 111
0 50 108
0 51 105
0 52 103
0 52 101
0 53 98
0 54 94
0 55 91
0 56 87
0 56 84
0 57 82
0 58 80
0 59 77
0 60 74
0 62 71
0 63 68
0 64 65
0 65 62
0 66 58
0 67 55
0 69 52
0 70 49
0 72 46
0 72 44
0 72 41
0 73 38
0 74 35
0 75 32
0 77 29
0 78 25
0 80 22
0 81 19
0 81 17
0 82 14
0 84 12
0 85 9
0 85 6
0 85 4
1 85 2
2 85 1
5 85 1
8 85 0
11 84 0
14 83 0
16 82 0
19 81 0
22 80 0
25 79 0
28 77 0
30 76 0
33 74 0
36 73 0
39 73 0
42 73 0
46 72 0
49 71 0
51 69 0
54 68 0
57 66 0
60 65 0
63 65 0
66 64 0
69 62 0
72 61 0
76 59 0
79 58 0
82 57 0
84 57 0
87 56 0
90 55 0
93 54 0
96 53 0
99 52 0
102 51 0
105 49 0
108 48 0
111 47 0
114 46 0
117 45 0
121 44 0
125 44 0
127 43 0
130 40 0
132 39 0
135 38 0
139 37 0
142 36 0
145 35 0
148 34 0
150 33 0
153 33 0
156 32 0
159 32 0
162 31 0
165 28 0
168 27 0
171 26 0
174 25 0
177 24 0
180 23 0
183 22 0
186 21 0
189 19 0
192 18 0
195 17 0
198 16 0
201 15 0
204 14 0
207 13 0
210 13 0
214 12 0
217 11 0
220 10 0
223 9 0
226 7 0
229 6 0
232 5 0
235 4 0
238 3 0
241 2 0
244 1 0
247 0 0
250 0 0
252 0 0
253 0 0
254 1 0
255 3 0
255 5 0
255 7 0
255 10 0
255 12 0
255 15 0
255 18 0
255 21 0
255 24 0
255 28 0
255 31 0
255 33 0
255 36 0
255 39 0
255 42 0
255 45 0
255 48 0
255 51 0
255 54 0
255 57 0
255 60 0
255 63 0
255 66 0
255 69 0
255 72 0
255 75 0
255 78 0
255 81 0
255 84 0
255 87 0
255 90 0
255 93 0
255 96 0
255 99 0
255 102 0
255 104 0
255 106 0
255 109 0
255 112 0
255 115 0
255 118 0
255 122 0
255 125 0
255 129 0
255 132 0
255 136 0
255 139 0
255 142 0
255 145 0
255 148 0
255 151 0
255 153 0
255 155 0
255 158 0
255 161 0
255 164 0
255 167 0
255 170 0
255 172 0
255 175 0
255 179 0
255 182 0
255 185 0
255 188 0
255 191 0
255 194 0
255 197 0
255 199 0
255 202 0
255 205 0
255 208 0
255 211 0
255 214 0
255 217 0
255 220 0
255 223 0
255 226 0
255 229 0
255 232 0
255 235 0
255 238 0
255 241 0
255 244 0
255 247 0
