P3
1 256
255
0 0 4
0 0 6
0 0 9
0 0 13
0 0 17
1 1 21
2 2 23
3 3 26
4 4 30
4 5 33
4 6 36
5 7 39
7 9 43
8 10 46
10 11 49
11 12 53
12 12 55
13 13 58
14 14 62
15 15 66
16 16 70
17 17 74
18 18 77
20 20 81
22 22 84
23 23 86
24 24 89
24 24 92
24 24 95
25 25 99
25 26 102
26 27 106
27 29 109
28 30 113
30 32 116
31 33 120
33 35 124
34 36 128
35 36 131
36 36 134
36 36 138
36 37 141
36 38 144
37 40 148
39 42 151
41 43 154
43 44 156
44 44 159
44 44 163
45 45 167
46 46 171
48 48 174
50 50 177
51 51 181
52 52 185
52 52 188
53 53 191
53 54 194
53 55 198
54 56 201
56 56 203
56 57 206
56 58 209
57 60 213
59 63 217
62 64 220
63 64 223
64 65 226
65 66 231
66 67 234
67 69 238
68 70 241
70 72 244
71 73 248
72 73 251
72 74 253
73 76 254
74 77 255
75 79 255
77 80 255
79 81 255
80 81 255
80 81 255
81 82 255
82 84 255
83 85 255
84 85 255
85 85 255
85 85 255
85 85 255
85 86 255
85 88 255
88 91 255
90 92 255
91 92 255
92 93 255
93 93 255
93 94 255
93 95 255
93 96 255
94 98 255
95 99 255
97 100 255
98 101 255
100 101 255
101 102 255
101 103 255
101 104 255
103 106 255
104 107 255
105 108 255
106 109 255
108 109 255
109 110 255
110 112 255
111 114 255
112 116 255
113 117 255
115 117 255
116 117 255
117 119 255
118 120 255
118 122 255
119 123 255
121 126 255
122 127 255
124 128 255
126 129 255
128 129 255
129 129 255
129 129 255
129 130 255
129 131 255
130 132 255
130 134 255
131 135 255
133 138 255
134 139 255
136 140 255
137 141 255
139 142 255
140 142 255
140 142 255
141 142 255
142 143 255
142 144 255
142 146 255
143 147 255
145 149 255
146 150 255
148 152 255
149 153 255
151 153 255
152 154 255
153 154 255
153 155 255
154 157 255
155 158 255
156 158 255
157 159 255
157 161 255
158 162 255
158 162 255
159 162 255
161 165 255
162 167 255
162 168 255
162 169 255
165 170 255
167 171 255
168 172 255
169 173 255
170 174 255
171 174 255
172 174 255
173 174 255
174 174 255
174 175 255
174 177 255
174 178 255
175 180 255
176 182 255
178 184 255
179 185 255
181 187 255
182 188 255
184 189 255
185 190 255
187 190 255
188 190 255
189 190 255
190 190 255
190 192 255
190 193 255
190 194 255
190 195 255
192 197 255
193 198 255
194 200 255
195 201 255
197 202 255
198 203 255
200 204 255
201 205 255
202 206 255
203 207 255
203 207 255
204 208 255
205 209 255
206 210 255
207 210 255
208 211 255
209 213 255
210 215 255
210 217 255
211 218 255
213 219 255
215 220 255
217 221 255
218 222 255
219 222 255
220 222 255
221 222 255
222 223 255
222 224 255
222 225 255
222 227 255
223 228 255
223 230 255
224 231 255
225 233 255
226 234 255
228 236 255
229 237 255
231 238 255
232 238 255
234 239 255
235 239 255
237 239 255
238 239 255
238 240 255
239 242 255
239 244 255
239 246 255
240 248 255
241 249 255
243 250 255
244 251 255
246 252 255
247 253 255
249 254 255
250 254 255
251 254 255
252 254 255
253 254 255
255 255 255
