P3
1 256
255
1 59 0
1 59 0
1 62 0
2 67 0
3 73 0
4 78 0
5 83 0
7 89 0
8 94 0
10 99 1
12 105 2
14 110 3
16 116 3
17 121 3
19 126 3
20 132 3
22 136 3
24 140 3
25 141 3
27 144 3
28 146 3
30 148 3
32 150 3
33 152 4
36 154 4
38 156 4
40 159 5
41 160 6
43 162 7
45 165 7
47 167 7
49 169 7
50 171 7
52 173 7
54 176 7
56 178 7
58 180 7
60 182 7
62 184 7
65 186 7
67 188 7
69 190 8
71 192 8
74 195 9
77 197 10
79 197 10
82 198 11
85 199 11
87 200 11
90 201 11
92 202 11
94 203 11
97 204 11
99 205 11
101 205 11
104 206 12
105 207 12
106 208 13
108 209 14
109 210 14
111 211 15
112 212 15
113 213 16
115 214 17
115 214 17
117 214 18
118 215 18
119 216 19
121 217 19
122 218 20
124 219 21
125 220 22
126 221 22
127 222 23
128 222 23
130 223 23
131 224 24
132 224 24
134 224 25
135 224 25
136 225 26
137 225 27
139 225 27
140 225 27
141 225 27
143 226 28
144 226 28
145 226 28
147 226 29
148 227 30
149 227 30
150 227 31
152 227 32
153 228 32
154 228 32
156 228 33
157 228 34
158 228 34
159 229 35
161 229 36
162 229 36
163 229 37
165 230 38
166 230 38
167 230 39
168 230 41
169 230 42
171 231 44
172 231 46
174 231 48
175 231 50
176 232 51
178 232 52
178 232 53
180 232 54
181 232 56
182 233 57
184 233 58
185 233 60
187 233 62
188 233 63
189 234 64
191 234 66
191 234 67
193 234 69
194 234 71
195 235 72
197 235 73
198 235 75
200 235 77
201 236 78
202 236 79
203 236 81
204 236 82
206 236 83
207 237 84
208 237 85
210 237 86
211 237 87
212 238 89
213 238 90
215 238 91
216 238 92
217 238 94
219 239 95
220 239 96
221 239 98
222 239 99
223 240 101
223 240 103
223 240 104
224 240 105
224 241 107
224 241 108
224 241 110
225 241 111
225 241 112
225 242 114
226 242 116
226 243 117
226 243 118
227 243 120
227 243 121
227 243 123
227 243 124
228 243 125
228 243 127
228 244 128
229 244 130
229 244 132
229 244 133
230 244 134
230 244 136
230 244 137
231 245 139
231 245 140
231 245 141
232 245 143
232 245 145
232 245 146
233 246 147
233 246 149
233 246 150
233 246 152
234 246 153
234 246 154
234 246 156
235 247 158
235 247 159
235 247 160
236 247 162
236 247 163
236 247 165
236 247 166
237 248 167
237 248 169
237 248 170
238 248 172
238 248 174
239 248 175
239 249 176
239 249 178
239 249 179
240 249 181
240 249 182
240 249 183
241 249 185
241 250 187
241 250 188
242 250 189
242 250 191
242 250 192
242 250 194
243 250 195
243 251 196
243 251 198
244 251 200
244 251 201
244 251 203
245 251 204
245 252 205
245 252 207
245 252 208
246 252 210
246 252 211
246 252 212
247 252 214
247 253 216
248 253 217
248 253 218
248 253 220
248 253 221
249 253 223
249 253 224
249 254 225
250 254 227
250 254 229
250 254 230
251 254 231
251 254 233
251 254 234
251 254 236
252 254 237
252 254 238
252 254 240
253 254 242
253 255 243
253 255 245
254 254 246
254 254 247
254 254 249
254 254 250
254 254 252
254 254 253
254 254 253
254 254 253
