P3
1 256
255
0 0 0
0 0 1
0 0 3
0 1 7
0 3 10
0 4 14
0 6 18
0 7 21
0 9 25
0 11 28
0 13 32
0 15 36
0 17 39
0 18 43
0 20 47
0 21 51
0 23 56
0 24 61
1 25 67
3 27 73
4 28 79
4 29 82
4 31 86
4 33 90
4 35 94
4 36 98
4 38 103
4 39 107
4 40 112
4 43 115
4 44 120
4 46 124
4 47 129
4 49 133
4 51 137
4 52 141
4 54 145
4 55 149
4 56 154
4 58 157
5 60 162
6 61 164
7 62 168
8 64 172
8 66 176
8 67 179
8 69 181
8 70 183
8 72 185
8 75 188
8 77 190
8 78 192
8 79 193
8 81 196
8 82 197
8 84 198
8 86 200
8 87 201
8 88 203
8 90 205
8 92 207
8 93 208
9 94 209
11 96 210
11 98 211
12 100 212
12 102 213
12 104 214
12 105 214
12 107 215
12 109 216
12 110 217
12 111 218
12 113 219
12 113 219
12 115 220
12 118 221
12 119 222
12 120 222
12 122 223
12 124 224
12 125 225
13 127 226
14 129 226
14 130 226
15 132 227
15 133 227
14 135 227
13 136 227
13 138 229
14 140 230
15 141 230
16 142 231
16 144 232
16 146 232
17 148 233
18 151 234
19 153 234
20 156 235
22 158 236
23 160 238
23 162 238
24 163 238
25 165 238
26 166 239
27 168 241
28 169 242
28 171 242
28 173 242
29 176 243
30 178 245
31 179 246
32 180 247
33 182 247
34 183 247
34 185 247
35 186 247
36 188 247
37 191 247
38 193 247
39 195 247
39 196 247
40 197 247
41 199 248
42 201 249
43 203 250
44 204 251
46 207 251
46 208 251
47 209 251
48 210 251
49 212 251
50 213 251
51 213 251
52 214 251
52 215 251
53 216 251
55 217 253
56 218 254
56 220 255
57 221 255
57 221 255
57 222 255
58 222 255
59 223 255
60 224 255
62 226 255
65 226 255
68 226 255
71 227 255
74 228 255
78 230 255
82 231 255
85 231 255
88 232 255
92 233 255
95 234 255
99 234 255
102 235 255
105 236 255
109 237 255
112 238 255
116 238 255
120 238 255
124 239 255
127 239 255
130 239 255
134 240 255
137 241 255
140 242 255
144 242 255
148 243 255
154 243 255
159 243 255
164 243 255
167 243 255
170 245 255
172 246 255
175 247 255
176 247 255
178 247 255
180 247 255
181 247 255
183 248 255
185 249 255
187 250 255
189 251 255
191 251 255
192 251 255
193 251 255
195 251 255
197 251 255
198 251 255
200 252 255
201 252 255
203 252 255
206 251 255
208 251 255
209 251 255
210 251 255
213 251 255
215 251 255
216 252 255
219 253 255
220 254 255
221 255 255
223 255 255
226 255 255
227 255 255
228 255 255
230 255 255
231 255 255
233 255 255
234 255 255
235 255 255
235 255 255
237 255 255
238 255 255
239 255 255
240 255 255
241 255 255
242 255 255
242 255 255
242 255 255
243 255 255
244 255 255
246 255 255
247 255 255
247 255 255
247 255 255
247 255 255
247 255 255
249 255 255
250 255 255
251 255 255
251 255 255
251 255 255
251 255 255
251 255 255
251 255 255
251 255 255
251 255 255
251 255 255
251 254 255
251 252 255
251 251 255
251 251 255
252 251 255
253 251 255
254 251 255
255 251 255
255 251 255
255 251 255
255 251 255
255 251 255
255 251 255
