P3
1 256
255
0 89 216
0 89 216
0 89 216
0 90 217
0 90 217
0 90 217
0 90 218
0 91 220
0 92 221
0 92 222
0 93 224
0 94 225
0 96 227
0 97 228
0 98 230
0 99 231
0 100 233
0 102 234
0 103 235
0 105 237
0 107 238
0 109 240
0 111 241
0 112 242
0 114 242
0 116 242
0 118 243
0 119 243
0 121 243
0 124 243
0 126 242
0 128 241
0 129 240
0 131 238
0 134 237
0 136 235
0 138 232
0 139 229
0 141 226
0 144 223
0 146 219
0 148 215
0 149 211
0 152 207
0 154 202
0 156 197
0 158 192
0 160 188
1 162 182
1 164 177
2 166 172
2 168 167
3 170 163
4 172 158
5 174 154
6 176 149
7 178 145
8 180 141
10 182 137
11 184 133
13 186 130
15 188 127
16 190 123
17 192 120
19 194 118
20 196 115
22 199 112
23 200 110
25 202 108
26 204 105
28 207 103
30 209 101
31 210 99
32 212 97
34 214 95
36 216 93
37 219 92
38 220 91
40 222 89
42 224 87
43 226 85
44 227 84
46 229 83
48 230 81
49 231 81
51 232 79
52 233 78
54 234 77
55 235 76
57 235 75
59 236 74
60 235 73
62 235 72
63 234 71
65 234 71
66 233 70
67 232 69
69 231 68
71 229 67
72 227 67
74 225 66
75 223 65
77 221 64
78 219 64
80 216 64
82 213 63
83 210 62
84 207 62
86 204 61
88 200 60
90 197 60
91 194 59
92 191 59
94 187 59
95 182 58
97 179 58
98 175 57
99 172 57
101 167 56
102 164 56
104 160 56
105 156 55
106 152 55
106 148 55
107 144 54
108 140 54
109 136 54
109 133 53
110 129 53
110 126 53
110 122 52
110 118 52
110 115 52
110 111 52
110 108 52
110 104 51
110 101 51
109 98 51
109 95 50
108 93 50
108 89 50
107 86 49
106 83 49
106 81 49
105 79 49
104 76 48
103 74 48
102 72 48
101 69 47
100 67 47
99 66 47
98 64 47
97 62 46
97 61 46
96 59 46
95 58 46
94 57 45
93 56 45
92 55 45
91 54 44
90 53 44
89 52 44
89 52 44
89 51 44
88 51 43
87 50 43
86 50 43
86 50 43
85 50 42
85 50 42
84 50 42
84 50 42
84 50 42
84 50 42
83 51 42
83 51 42
83 52 42
83 53 42
84 54 42
84 55 42
84 56 42
85 57 43
85 58 43
85 59 43
86 60 43
87 62 44
88 64 45
89 66 45
90 68 46
91 69 47
93 71 48
94 73 49
95 75 50
97 78 51
98 80 52
100 82 54
102 84 56
104 87 58
106 89 60
107 92 61
109 94 63
112 97 66
114 99 68
116 102 70
118 105 73
120 107 75
123 110 78
126 113 81
128 115 83
131 118 86
134 121 89
136 123 92
139 126 96
142 129 99
145 132 102
147 135 105
150 138 109
153 141 112
156 143 115
159 146 119
162 149 122
164 151 126
167 154 129
170 157 132
173 160 136
176 163 139
179 166 143
182 169 146
184 171 149
186 174 153
189 177 156
191 179 160
194 182 163
196 184 166
198 186 169
200 189 172
202 191 175
205 194 178
206 195 181
208 198 184
210 200 187
211 202 189
213 204 191
214 205 193
216 207 195
217 208 197
218 210 199
219 211 201
220 212 202
221 213 203
222 214 205
222 214 205
222 215 205
222 215 206
223 215 206
223 215 206
