P3
1 256
255
0 88 208
0 88 208
0 88 208
0 88 209
0 88 209
0 88 209
0 89 210
0 89 211
0 89 212
0 90 214
0 90 216
0 90 219
0 91 222
0 91 226
0 92 229
0 92 233
0 93 237
0 94 241
0 94 244
0 95 247
0 97 249
0 98 251
0 99 252
0 100 253
0 102 254
0 103 254
0 105 254
0 106 254
0 108 254
0 110 254
0 112 254
0 114 254
0 116 254
0 118 254
0 121 254
0 123 254
0 125 253
0 127 252
0 129 250
0 132 248
0 134 244
0 136 241
0 139 236
0 142 231
0 144 225
0 146 219
0 149 211
0 152 203
0 154 195
0 158 185
0 161 175
0 163 164
0 166 154
0 169 143
0 172 133
0 175 123
0 178 115
0 182 107
0 184 100
0 187 95
0 190 91
0 192 86
0 195 82
0 198 79
0 200 77
0 203 75
0 206 73
1 208 72
1 210 71
1 212 70
2 214 69
2 216 69
3 217 68
4 219 68
4 221 68
4 222 67
5 223 67
6 224 67
7 226 67
8 227 67
9 227 67
10 228 66
12 229 66
13 229 66
14 229 66
15 229 66
16 229 66
18 229 65
20 229 65
22 228 65
24 227 65
25 226 65
27 225 64
29 224 64
31 223 64
34 221 64
36 220 63
38 218 63
40 215 63
43 213 63
45 211 62
47 208 62
50 205 62
52 202 62
55 198 61
58 195 61
61 191 61
63 188 60
66 184 60
69 180 60
71 176 60
74 172 59
77 168 59
79 164 59
82 159 59
85 156 58
89 151 58
91 148 58
94 143 57
97 140 57
100 136 57
104 132 56
107 128 56
110 124 56
113 121 56
116 118 56
118 114 55
121 111 55
124 108 55
126 105 54
128 102 54
130 99 54
132 96 53
132 94 53
134 91 53
135 89 53
135 87 52
136 84 52
136 82 52
137 80 52
137 78 51
137 76 51
137 74 51
137 72 51
137 70 50
137 69 50
137 67 50
137 66 49
136 64 49
135 62 49
135 61 48
134 60 48
133 58 48
133 58 48
132 56 47
131 55 47
129 54 47
128 53 47
127 52 46
125 51 46
124 50 46
123 49 45
122 49 45
120 49 45
119 48 45
118 48 44
116 47 44
115 47 44
113 47 43
112 46 43
111 46 43
110 47 43
110 47 43
109 47 42
108 47 42
107 48 42
107 48 42
106 49 41
105 50 41
105 51 41
104 52 41
104 53 41
104 54 41
104 56 41
104 57 41
104 58 41
104 60 42
105 62 42
106 64 43
106 66 44
107 68 44
108 71 45
109 73 46
111 76 47
112 78 48
113 80 49
115 83 51
117 86 53
119 88 55
120 91 56
123 94 59
125 97 61
127 99 63
129 102 66
131 105 69
133 107 71
136 110 74
139 113 78
141 116 80
143 119 84
146 122 87
148 124 90
150 127 94
153 130 97
155 134 101
157 136 104
160 139 108
163 142 111
165 144 115
167 148 119
170 151 122
172 153 126
174 156 129
177 159 133
178 162 137
181 165 140
184 168 145
186 171 148
188 173 152
191 177 156
193 180 159
195 182 163
198 185 166
200 188 170
202 190 174
205 193 177
207 196 181
210 199 184
211 201 188
213 204 191
216 206 194
218 208 197
220 211 200
221 213 203
223 215 205
224 217 208
226 219 210
227 220 212
228 221 214
229 223 215
230 224 217
230 224 217
231 225 218
231 225 219
232 226 219
232 226 219
