P3
1 256
255
0 87 124
0 87 124
0 87 126
0 87 131
0 87 137
0 87 144
0 87 151
0 88 160
0 88 168
0 89 177
0 89 184
0 89 192
0 90 198
0 90 204
0 91 209
0 91 214
0 91 217
0 92 221
0 92 223
0 93 226
0 94 228
0 94 230
0 95 232
0 95 233
0 96 234
0 96 235
0 96 236
0 97 237
0 98 237
0 98 237
0 99 236
0 99 234
0 100 232
0 100 228
0 101 223
0 101 216
0 102 207
0 102 197
0 103 185
0 103 172
0 104 159
0 104 146
0 105 134
0 106 123
0 106 113
0 106 105
0 107 98
0 107 92
0 108 88
0 108 84
0 109 80
0 110 78
0 110 77
0 111 75
0 111 73
0 111 72
0 112 71
0 113 70
0 113 69
0 114 69
0 114 69
0 115 68
0 116 68
0 116 68
0 116 68
0 117 68
0 117 68
1 118 68
1 119 69
1 119 69
1 120 69
2 121 69
2 121 69
3 122 69
3 122 69
3 122 69
4 123 69
5 124 69
5 124 69
6 125 69
7 125 69
8 126 69
10 126 68
11 126 68
12 126 68
13 127 68
14 127 68
16 127 68
18 127 67
20 127 67
22 127 67
23 126 66
25 126 66
27 125 66
29 125 66
32 124 65
34 123 65
36 122 65
39 121 65
42 120 64
44 118 64
47 117 64
50 115 63
52 114 63
55 112 63
58 110 63
62 109 62
64 107 62
67 105 62
71 103 61
73 101 61
76 99 61
79 97 61
81 95 61
84 93 60
87 91 60
90 90 60
92 88 59
95 86 59
97 84 59
99 83 58
100 82 58
102 80 58
104 79 58
106 77 57
107 76 57
108 75 57
109 73 56
110 72 56
111 71 56
112 70 56
112 69 55
113 67 55
113 67 55
113 66 55
113 65 54
113 64 54
113 64 54
113 63 53
112 62 53
112 61 53
111 60 52
111 59 52
111 59 52
110 59 52
109 58 51
109 57 51
108 57 51
107 56 51
106 55 50
105 55 50
104 54 50
104 53 49
104 53 49
103 53 49
102 52 49
101 51 48
100 51 48
99 50 48
98 49 47
97 49 47
96 48 47
96 48 47
95 48 46
95 47 46
94 46 46
93 46 46
92 45 45
91 45 45
90 45 45
89 44 44
89 44 44
89 44 44
88 44 44
87 44 43
87 44 43
86 44 43
86 44 42
86 45 42
86 46 42
87 47 41
87 48 41
87 49 41
88 51 41
89 52 41
91 54 40
92 56 40
94 59 40
96 61 40
97 63 40
100 66 40
102 69 41
104 71 41
106 74 41
108 77 42
110 79 43
113 83 45
116 86 47
118 88 49
120 91 50
123 94 53
125 97 56
127 100 58
130 103 61
132 106 65
134 108 67
137 111 71
140 115 75
142 117 78
144 120 82
147 123 85
149 126 89
151 129 93
154 132 97
157 135 101
159 137 104
161 140 108
164 143 111
166 146 116
168 149 120
171 152 123
173 155 127
176 158 130
178 161 134
180 163 139
183 166 142
185 170 146
188 173 149
190 175 153
193 178 157
195 181 161
197 184 165
200 187 168
202 190 172
204 192 176
207 195 180
210 199 184
212 202 187
214 204 191
217 207 195
219 210 199
221 213 203
224 216 206
226 219 210
228 221 213
231 224 217
233 227 220
235 229 223
236 231 226
238 233 229
240 235 231
240 236 233
241 237 234
242 238 235
243 239 236
243 239 236
