P3
1 256
255
31 0 0
33 0 2
35 0 4
37 0 6
40 0 8
42 0 10
45 0 12
47 0 15
50 0 17
52 0 19
54 2 21
57 3 23
59 4 25
61 5 27
64 6 29
66 6 31
68 7 34
71 8 36
73 8 38
75 8 40
78 8 42
81 8 45
83 10 47
85 11 48
87 12 51
89 12 53
92 14 55
94 15 57
96 15 59
99 16 61
102 18 64
104 19 66
106 20 67
109 20 70
112 20 72
114 20 74
116 20 77
117 21 78
118 22 80
120 23 83
122 24 85
124 25 87
125 26 89
126 27 91
128 28 94
128 29 96
130 30 98
131 31 99
132 31 99
134 32 100
136 32 101
137 32 102
138 33 103
140 34 105
141 34 105
143 34 105
145 36 105
146 37 105
147 38 105
149 39 107
151 40 108
152 41 108
153 42 109
155 43 111
156 43 111
157 44 112
158 44 114
159 44 115
160 44 115
162 45 116
164 46 117
165 47 117
166 48 117
168 49 118
169 50 118
169 50 118
171 52 119
172 53 120
173 54 121
175 56 123
178 56 124
179 56 124
181 57 125
182 57 125
182 57 125
184 57 125
185 58 126
186 60 127
186 60 127
188 61 128
190 63 130
191 64 131
193 65 132
196 66 133
197 66 133
198 67 133
199 68 133
200 68 134
202 69 134
204 69 135
206 69 137
208 69 137
209 70 138
210 71 139
211 72 140
212 73 141
213 74 142
214 76 143
215 76 144
217 77 145
219 79 145
220 80 146
222 81 146
224 81 146
225 81 146
226 81 147
227 81 148
229 81 149
230 82 150
232 84 151
234 85 153
236 85 153
237 85 153
238 86 153
239 87 154
241 88 154
242 89 154
244 90 155
246 91 156
248 92 157
249 93 158
250 93 159
251 93 160
251 93 161
251 93 162
251 93 162
251 95 164
251 96 165
251 97 166
251 98 166
251 99 166
251 100 166
251 101 166
251 102 167
251 103 168
251 104 169
251 105 170
251 105 170
251 105 170
251 105 172
251 106 173
251 107 174
251 108 174
251 108 174
251 109 174
251 110 174
251 111 174
251 112 176
251 113 177
251 115 178
251 116 179
251 116 180
251 116 179
251 117 178
251 117 179
251 117 180
251 118 182
251 119 183
251 119 185
251 121 186
251 122 187
251 123 189
251 123 190
251 125 191
251 126 193
251 127 194
251 128 195
251 130 197
251 131 198
251 132 199
251 133 201
251 135 202
251 135 203
251 137 205
251 138 206
251 139 207
251 140 209
251 142 210
251 143 212
251 144 213
251 145 214
251 147 216
251 149 217
251 151 218
251 152 219
251 154 221
251 156 222
251 158 224
251 160 225
251 161 226
251 164 228
251 166 229
251 168 230
251 170 232
251 171 233
251 173 234
251 175 238
251 177 238
251 179 238
251 180 239
251 183 239
251 185 239
251 187 240
251 189 240
251 190 241
251 192 241
251 195 241
251 196 242
251 198 242
251 199 243
251 201 243
251 203 243
251 204 244
251 206 244
251 207 244
251 209 245
251 211 245
251 213 246
251 215 246
251 216 247
251 217 247
251 219 247
251 221 247
251 222 248
251 224 248
251 225 249
251 227 249
251 229 250
251 230 250
251 232 250
251 234 251
251 235 251
251 237 251
251 238 252
251 240 252
251 242 253
251 244 253
251 245 253
251 246 254
251 248 254
251 250 255
251 252 255
251 254 255
251 255 255
251 254 255
251 255 255
