P3
1 256
255
1 1 6
1 1 6
1 1 6
1 1 6
1 1 6
1 1 6
1 1 7
1 1 10
1 1 15
1 1 22
1 1 28
1 0 35
1 0 41
1 0 49
1 0 56
1 0 63
1 0 70
1 0 77
1 0 84
1 0 91
1 0 98
1 0 105
0 0 112
0 0 119
0 0 126
0 0 133
0 0 140
0 0 147
0 0 154
0 0 161
0 0 168
0 0 175
0 0 182
0 0 189
0 0 196
0 0 202
0 0 210
0 0 217
0 0 224
0 0 230
0 0 236
0 0 239
0 0 241
0 0 243
0 0 244
0 0 244
0 0 245
0 0 245
0 0 245
3 0 246
6 2 246
8 3 246
10 3 245
10 3 244
10 3 242
10 3 239
12 3 236
15 3 232
19 3 227
24 3 222
28 3 218
33 3 212
37 3 208
41 3 203
45 3 198
50 3 193
54 3 187
59 3 182
63 3 177
68 3 172
72 3 168
76 4 162
80 4 157
85 4 152
89 4 147
94 4 142
98 4 137
103 4 132
107 4 127
112 4 121
116 4 117
120 4 112
124 4 106
129 4 101
133 4 96
138 4 91
142 4 87
147 4 81
151 4 76
156 4 70
159 4 66
164 4 61
168 4 55
173 4 50
177 4 45
182 4 39
186 4 34
191 4 29
195 4 25
200 4 20
205 3 16
208 3 12
211 2 9
213 2 7
216 1 6
219 0 5
222 0 4
224 0 4
225 0 4
228 0 4
230 0 4
231 0 4
232 0 4
234 0 4
236 0 4
238 0 4
239 0 4
241 0 4
242 0 4
244 0 4
245 0 3
245 0 3
245 0 2
245 0 2
245 0 1
245 0 0
245 0 0
245 0 0
245 0 0
245 0 0
245 0 0
245 0 0
244 0 0
244 0 0
243 0 0
243 0 0
241 0 0
239 0 0
237 0 0
235 0 0
234 1 0
232 3 0
230 6 0
228 8 0
227 11 0
226 14 0
224 17 0
221 20 0
218 22 0
214 24 0
209 26 0
204 29 0
199 32 0
195 35 0
191 38 0
186 41 0
182 44 0
177 47 0
173 50 0
168 53 0
164 56 0
158 59 0
153 62 0
148 65 0
144 68 0
139 71 0
135 74 0
130 77 0
125 79 0
120 82 0
116 86 0
111 91 0
107 97 0
102 104 0
97 112 0
92 119 0
88 127 0
83 136 0
79 146 0
74 151 0
69 154 0
64 157 0
60 161 0
55 166 0
50 171 0
44 177 0
40 181 0
35 186 0
31 191 0
26 196 0
22 202 0
17 207 0
13 210 0
8 213 0
5 215 0
3 217 0
1 220 0
0 222 0
0 224 0
0 226 0
0 229 0
0 232 0
0 234 0
0 237 0
0 239 0
0 241 0
0 243 0
0 246 0
0 248 0
0 250 0
0 252 0
0 253 0
0 254 0
0 254 0
0 254 0
0 254 0
0 254 0
0 254 0
0 254 0
0 254 0
0 254 0
0 254 0
0 254 0
0 254 0
0 254 0
0 254 1
0 255 4
3 255 9
8 255 15
14 255 23
22 255 31
30 255 40
38 255 48
47 255 56
56 255 64
64 255 72
73 255 81
82 255 90
91 255 99
100 255 108
109 255 117
118 255 125
127 255 133
136 255 142
145 255 150
154 255 159
163 255 168
172 255 177
181 255 186
190 255 195
200 255 204
209 255 213
218 255 221
227 255 229
234 255 235
234 255 235
