P3
1 256
255
19 6 228
19 6 228
20 6 227
21 6 226
22 6 223
24 6 220
27 6 216
30 6 213
33 6 209
35 6 206
39 6 201
43 6 197
46 6 193
50 6 189
53 6 184
56 6 180
59 6 176
63 6 172
67 6 167
70 6 163
74 6 159
77 6 155
81 6 150
85 6 146
88 6 142
92 6 138
95 6 133
98 6 129
102 6 125
105 6 121
109 6 116
112 6 112
116 6 108
120 6 104
123 6 99
127 6 95
130 6 91
134 6 87
138 6 82
141 5 78
144 5 74
147 4 70
151 4 65
154 4 61
158 4 56
162 4 52
165 4 48
169 4 44
172 4 39
176 4 35
180 4 31
183 4 28
187 4 25
190 4 23
193 4 23
197 4 22
200 4 21
204 4 20
207 4 20
212 4 19
216 4 19
219 4 19
222 3 18
224 3 18
225 4 18
225 6 17
223 9 17
221 13 17
219 17 16
215 23 16
212 27 15
207 32 15
203 36 15
198 41 14
193 46 14
188 51 14
183 56 13
178 61 13
174 65 13
168 71 12
164 75 12
159 80 11
154 85 11
149 90 11
144 95 11
139 100 10
134 104 10
129 109 9
124 114 9
119 119 9
115 123 8
110 128 8
105 133 7
100 138 7
95 143 7
90 148 7
85 152 6
80 158 6
75 162 5
70 167 5
65 172 5
60 177 4
55 182 4
51 186 4
46 191 3
41 196 3
36 201 3
31 205 2
26 210 2
22 215 1
18 220 1
15 224 1
13 228 0
12 231 0
12 233 0
13 234 0
15 232 0
17 230 0
20 225 0
23 221 0
27 215 1
31 211 1
35 206 1
39 200 1
43 195 2
47 190 2
52 185 2
55 180 2
60 175 3
63 170 3
68 165 3
72 160 4
76 155 4
80 149 4
84 144 4
88 140 4
93 134 5
97 129 5
101 124 5
104 119 6
107 114 6
110 109 6
114 104 6
117 98 6
120 93 7
124 89 7
127 83 7
131 78 8
135 73 8
138 68 8
142 63 8
145 58 9
149 53 9
153 48 9
156 43 9
161 38 10
164 32 10
168 27 10
172 23 10
175 17 11
179 13 11
183 9 11
187 8 11
191 7 12
194 6 12
198 6 12
201 6 12
206 6 13
209 6 13
213 6 13
217 6 14
220 6 14
224 6 14
227 6 14
230 6 14
232 6 15
234 6 15
235 6 15
235 6 16
234 6 16
233 5 17
231 5 19
229 5 21
226 5 24
223 5 27
221 5 29
218 5 32
214 5 36
212 5 38
209 5 41
205 5 44
202 5 47
199 5 50
196 5 53
193 5 56
190 5 58
186 5 61
183 5 65
180 5 67
177 5 70
174 5 73
170 6 77
167 6 79
164 6 82
160 6 86
157 6 88
154 6 91
150 6 95
147 6 97
144 6 100
141 6 103
138 6 105
134 6 109
131 6 112
127 6 115
125 6 117
121 6 120
118 6 123
115 6 126
111 6 129
108 6 132
105 6 135
102 6 138
98 6 141
95 6 144
92 6 147
88 6 150
85 6 153
82 6 156
79 6 159
76 6 162
72 6 164
69 6 167
66 6 170
63 6 173
60 6 176
57 6 179
54 6 182
51 6 185
48 6 188
45 6 191
43 6 194
41 6 197
38 6 200
36 6 203
34 6 206
31 6 209
29 6 211
27 6 215
25 6 218
22 6 220
20 6 222
19 6 224
18 6 225
17 6 226
17 6 226
