P3
1 256
255
0 2 148
0 2 148
0 2 151
0 3 155
0 3 161
0 4 166
0 5 173
0 7 179
0 8 185
0 10 192
0 12 198
0 14 203
0 16 209
0 19 214
0 22 218
0 24 222
0 27 226
0 30 229
0 32 232
0 35 234
0 38 236
0 41 238
0 43 240
0 46 241
0 49 242
0 51 242
0 54 242
0 57 243
0 59 243
0 62 243
0 65 243
0 68 243
0 70 243
0 73 242
0 76 242
0 78 241
0 81 239
0 84 237
0 86 234
0 89 231
0 92 226
0 94 222
0 97 217
0 100 211
0 103 205
0 105 199
1 108 192
1 111 184
1 113 177
1 116 169
2 119 160
2 121 151
2 124 141
2 127 131
2 129 121
3 132 111
3 135 101
3 138 92
4 140 83
4 143 75
4 146 68
5 148 62
5 151 55
6 154 50
6 156 45
6 159 40
7 162 35
8 165 31
8 167 28
9 170 24
10 173 21
10 175 18
11 178 16
12 181 14
12 183 12
13 186 10
14 189 9
15 191 8
16 194 7
18 197 6
20 200 5
21 202 5
23 205 5
25 208 5
27 210 5
29 213 5
30 215 5
32 217 5
34 220 5
37 223 5
39 225 5
41 228 5
44 230 5
47 232 5
49 234 5
52 235 5
55 236 5
58 237 5
61 238 5
64 239 5
67 240 5
70 240 5
73 241 5
76 241 5
79 242 5
82 242 5
86 243 5
88 243 5
92 244 5
95 244 5
97 245 5
101 245 5
104 246 5
107 246 5
110 246 5
113 247 5
117 247 5
119 248 5
123 248 5
126 249 5
130 249 5
134 250 5
138 250 5
142 250 5
145 251 5
149 251 5
154 252 5
157 252 5
161 253 5
164 253 5
168 253 5
172 253 5
175 253 5
178 253 5
181 253 5
185 252 5
187 251 5
189 249 5
191 248 5
193 246 5
194 244 5
196 242 5
198 239 5
198 237 5
199 234 5
200 231 5
201 229 5
202 226 5
203 224 5
204 222 5
205 219 5
206 216 5
207 213 5
207 211 5
207 208 5
208 205 4
209 203 4
210 200 4
211 197 4
212 195 4
213 192 4
214 189 4
214 187 4
215 185 4
215 182 4
216 179 4
217 177 4
218 174 4
219 171 4
220 169 4
221 166 4
222 163 4
222 161 4
223 158 4
224 155 4
224 153 4
225 150 4
226 147 4
227 144 4
228 143 4
229 140 4
230 137 4
230 135 4
231 132 4
232 129 4
232 127 4
233 124 4
234 121 4
235 119 4
236 116 4
237 113 4
238 110 4
238 108 4
239 105 4
240 102 4
241 100 4
242 98 4
242 95 4
243 93 4
244 90 4
244 87 4
245 84 4
245 82 4
245 79 4
245 76 4
245 74 4
245 71 4
245 68 4
245 66 4
245 63 4
245 60 4
245 58 4
245 55 4
244 52 4
244 49 4
244 47 4
243 45 4
243 42 4
243 40 4
243 38 4
243 36 4
243 34 4
243 32 4
243 30 4
243 29 4
243 28 4
244 26 4
244 25 4
245 24 4
245 23 4
246 23 4
246 23 4
246 22 4
247 21 4
247 21 4
248 20 4
248 20 4
248 20 4
249 19 4
249 19 4
250 18 5
250 18 5
250 18 5
251 17 5
251 17 5
252 16 5
252 15 5
253 15 5
253 14 5
253 14 4
254 14 4
254 14 4
254 13 3
254 13 3
254 13 3
254 13 3
