P3
1 256
255
3 1 1
3 1 1
5 1 1
6 0 0
8 0 0
10 0 0
12 0 0
15 0 0
17 0 0
19 0 0
21 0 0
23 0 0
25 0 0
27 0 0
30 0 0
32 0 0
34 0 0
37 0 0
38 0 0
41 0 0
43 0 0
46 0 0
48 0 0
49 0 0
52 0 0
54 0 0
56 0 0
58 0 0
60 0 0
63 0 0
65 0 0
68 0 0
69 0 0
72 0 0
74 0 0
76 0 0
78 0 0
80 0 0
82 0 0
85 0 0
87 0 0
89 0 0
91 0 0
94 0 0
96 0 0
98 0 0
100 0 0
102 0 0
104 0 0
107 0 0
109 0 0
111 0 0
113 0 0
115 0 0
117 0 0
119 0 0
121 0 0
123 0 0
125 0 0
128 0 0
130 0 1
132 0 1
134 1 0
137 1 0
139 1 0
141 0 0
144 0 0
146 1 1
148 2 2
150 3 3
153 4 4
155 5 5
157 6 6
160 7 7
162 7 7
164 8 8
167 9 9
168 10 10
171 11 11
173 12 12
176 13 13
177 14 14
180 15 15
182 16 16
184 16 16
187 17 17
189 18 18
191 19 19
193 20 20
196 21 21
198 22 22
200 23 23
202 24 24
205 25 25
207 25 25
210 26 26
212 27 27
214 28 28
216 29 29
219 30 30
221 31 31
223 32 32
225 33 33
227 33 33
230 34 34
232 35 35
234 36 36
236 37 37
239 38 38
241 39 39
243 40 40
245 41 41
248 42 42
250 42 42
252 43 43
253 44 44
254 45 45
254 46 46
254 47 47
254 48 48
254 49 49
254 50 50
254 51 51
254 51 51
254 52 52
254 52 53
254 53 54
254 54 55
254 55 56
255 56 57
255 57 58
255 58 59
255 59 60
255 59 60
255 60 61
255 61 62
255 62 63
255 63 64
255 64 65
255 65 66
255 66 67
255 67 68
255 68 69
255 68 69
255 69 70
255 70 71
255 71 72
255 72 73
255 73 74
255 74 75
255 75 76
255 76 77
255 77 78
255 77 78
255 78 79
255 79 80
255 80 81
255 81 82
255 82 83
255 83 84
255 84 85
255 85 86
255 85 86
255 86 87
255 87 88
255 88 89
255 89 90
255 90 91
255 91 92
255 92 93
255 93 94
255 94 95
255 94 95
255 95 96
255 96 97
255 97 98
255 98 99
255 99 100
255 100 101
255 99 102
255 98 103
255 99 103
255 100 103
255 102 105
255 103 106
255 105 108
255 108 110
255 110 112
255 112 114
255 114 116
255 116 118
255 118 121
255 120 123
255 123 125
255 125 127
255 127 129
255 129 131
255 131 133
255 133 135
255 135 137
255 137 140
255 140 142
255 142 144
255 144 146
255 146 148
255 148 150
255 150 152
255 152 155
255 154 157
255 156 158
255 159 161
255 161 163
255 163 165
255 165 167
255 167 169
255 169 171
255 171 173
255 174 176
255 176 178
255 177 180
255 180 182
255 182 184
255 184 186
255 186 189
255 188 190
255 190 192
255 193 195
255 195 197
255 197 199
255 199 201
255 201 203
255 203 205
255 205 207
255 207 209
255 209 211
255 211 213
255 214 216
255 216 218
255 217 220
255 220 222
255 222 224
255 224 226
255 227 229
255 228 230
255 230 232
255 233 235
255 235 237
255 237 239
255 239 241
255 241 243
255 243 245
255 245 247
255 248 250
255 249 251
255 251 253
255 251 253
