P3
1 256
255
0 0 0
2 1 0
4 2 0
6 3 0
8 4 0
10 5 0
12 6 0
13 7 0
15 9 0
16 10 0
18 11 0
21 12 0
23 13 0
24 14 0
26 15 0
29 16 0
31 17 0
32 18 0
34 20 0
36 21 0
38 23 0
40 24 0
42 25 0
45 26 0
47 27 0
50 28 0
52 30 0
54 31 0
56 32 0
57 33 0
59 34 0
62 35 0
64 36 0
65 37 0
67 39 0
70 40 0
72 41 0
73 42 0
75 43 0
78 44 0
80 46 0
81 47 0
83 49 0
84 50 0
86 51 0
88 52 0
90 53 0
92 54 0
94 56 0
96 57 0
98 57 0
100 58 0
102 60 0
103 61 0
105 63 0
107 64 0
109 65 0
111 66 0
113 67 0
115 68 0
118 70 0
119 71 0
122 72 0
125 73 0
127 74 0
129 76 0
131 78 0
133 79 0
135 80 0
137 81 0
139 81 0
141 82 0
143 84 0
145 85 0
147 86 0
149 87 0
151 89 0
152 91 0
154 92 0
156 93 0
158 93 0
160 94 0
162 96 0
164 98 0
166 100 0
168 101 0
170 101 0
171 102 0
173 104 0
174 105 0
176 105 0
178 105 0
181 107 0
182 109 0
184 111 0
186 112 0
189 113 0
190 114 0
192 115 0
194 116 0
197 118 0
198 119 0
201 120 0
203 121 0
206 123 0
208 125 0
210 127 0
212 128 0
215 129 0
216 130 0
218 131 0
219 132 0
222 133 0
223 134 0
225 134 0
227 135 0
229 138 0
231 139 0
233 140 0
235 141 0
238 143 0
239 144 0
241 146 0
242 147 0
244 149 0
246 150 0
248 150 0
250 151 0
252 153 0
253 154 0
254 154 0
255 155 0
255 157 0
255 158 0
255 160 0
255 161 0
255 162 0
255 163 0
255 164 0
255 165 1
255 167 3
255 168 5
255 169 7
255 170 10
255 171 13
255 172 14
255 173 16
255 174 17
255 175 20
255 176 22
255 178 24
255 179 25
255 181 28
255 182 31
255 182 33
255 183 35
255 185 38
255 186 40
255 188 42
255 189 43
255 190 46
255 191 48
255 193 50
255 195 51
255 197 54
255 198 56
255 198 58
255 198 61
255 200 63
255 201 65
255 201 67
255 202 69
255 204 71
255 206 73
255 208 75
255 209 77
255 210 80
255 211 83
255 211 85
255 212 86
255 214 88
255 216 91
255 217 93
255 218 94
255 219 96
255 220 99
255 221 101
255 222 102
255 222 105
255 223 108
255 225 110
255 227 112
255 229 114
255 230 116
255 230 119
255 231 120
255 232 123
255 234 126
255 236 128
255 237 130
255 239 132
255 240 134
255 241 136
255 242 138
255 242 140
255 243 143
255 243 145
255 244 148
255 246 150
255 248 152
255 250 154
255 251 155
255 252 157
255 253 160
255 254 162
255 255 163
255 255 165
255 255 168
255 255 171
255 255 173
255 255 175
255 255 177
255 255 179
255 255 181
255 255 183
255 255 185
255 255 187
255 255 189
255 255 192
255 255 195
255 255 197
255 255 199
255 255 201
255 255 203
255 255 205
255 255 207
255 255 209
255 255 211
255 255 213
255 255 215
255 255 217
255 255 220
255 255 222
255 255 224
255 255 226
255 255 228
255 255 230
255 255 232
255 255 234
255 255 237
255 255 239
255 255 240
255 255 242
255 255 245
255 255 248
255 255 251
