P3
1 256
255
0 0 4
0 0 7
0 0 10
0 0 13
0 0 15
0 1 17
0 2 20
0 3 23
0 4 27
0 4 30
0 4 33
0 4 36
0 4 39
0 4 42
0 4 44
0 5 47
0 7 50
0 8 53
0 8 56
0 9 59
0 11 63
0 12 66
0 12 69
0 12 72
0 12 75
0 12 78
0 12 80
0 12 83
0 14 85
0 15 88
0 15 91
0 16 95
0 16 99
0 16 101
0 16 103
0 16 106
0 16 109
0 17 112
0 18 115
0 19 119
0 20 123
0 21 126
0 22 128
0 23 131
0 24 134
0 24 137
0 24 140
0 24 143
0 25 146
0 26 149
0 26 152
0 27 155
0 28 158
0 28 161
0 29 164
0 30 167
0 31 170
0 32 173
0 32 176
0 32 179
0 32 182
0 33 185
0 33 188
0 34 191
0 35 194
0 36 197
0 36 200
0 36 203
0 36 206
0 36 209
0 36 212
0 37 216
0 38 219
0 39 222
0 39 225
0 40 228
0 42 231
0 43 234
0 43 237
0 44 240
0 44 242
0 44 244
0 44 247
0 45 250
2 45 251
4 46 250
6 49 247
9 51 245
12 53 242
14 55 240
16 57 237
19 60 234
22 63 231
25 65 228
29 67 225
32 70 222
35 73 219
38 76 216
41 78 213
43 80 209
46 82 206
49 84 203
52 87 200
55 90 197
58 93 194
61 96 191
65 98 188
68 100 185
71 102 182
74 105 179
77 107 176
79 109 173
82 112 170
84 115 167
87 117 164
90 119 161
93 122 158
97 125 155
100 127 152
102 129 149
105 132 146
108 134 143
111 136 140
114 139 137
117 142 134
121 145 132
125 148 129
127 150 126
130 152 123
132 154 120
135 156 116
138 158 113
141 161 110
144 164 107
147 167 104
150 169 102
153 171 99
156 173 96
159 175 92
162 178 89
165 181 86
168 183 83
171 185 81
174 188 79
177 191 76
180 193 73
183 196 70
186 198 67
189 201 64
192 202 60
195 204 57
198 207 54
201 210 51
204 213 48
207 216 45
210 218 43
214 221 40
217 223 37
220 225 34
223 227 31
226 230 27
229 233 24
232 236 21
235 237 18
238 240 15
241 242 13
243 244 11
245 247 8
249 250 5
252 252 4
253 253 4
254 254 5
255 255 7
255 255 10
255 255 13
255 255 15
255 255 17
255 255 20
255 255 24
255 255 27
255 255 30
255 255 33
255 255 36
255 255 39
255 255 42
255 255 45
255 255 47
255 255 50
255 255 53
255 255 56
255 255 60
255 255 63
255 255 66
255 255 69
255 255 72
255 255 75
255 255 78
255 255 81
255 255 83
255 255 85
255 255 88
255 255 92
255 255 96
255 255 99
255 255 101
255 255 104
255 255 106
255 255 109
255 255 112
255 255 116
255 255 119
255 255 123
255 255 126
255 255 129
255 255 131
255 255 134
255 255 137
255 255 140
255 255 143
255 255 146
255 255 149
255 255 152
255 255 155
255 255 158
255 255 161
255 255 164
255 255 167
255 255 170
255 255 173
255 255 176
255 255 179
255 255 182
255 255 185
255 255 188
255 255 191
255 255 194
255 255 197
255 255 200
255 255 203
255 255 206
255 255 209
255 255 213
255 255 216
255 255 219
255 255 222
255 255 225
255 255 228
255 255 231
255 255 234
255 255 237
255 255 240
255 255 242
255 255 244
255 255 248
255 255 251
255 255 255
