P3
1 256
255
0 0 4
0 2 7
0 4 10
0 6 13
0 8 15
0 10 17
0 11 20
0 12 23
0 13 27
0 14 30
0 16 33
0 18 36
0 20 39
0 22 42
0 23 44
0 24 47
0 26 50
0 28 53
0 30 56
0 31 59
0 33 63
0 34 66
0 35 69
0 36 72
0 38 75
0 40 78
0 42 80
0 44 83
0 46 85
0 48 88
0 50 91
0 51 95
0 52 99
0 53 101
0 55 103
0 56 106
0 58 109
0 60 112
0 62 115
0 63 119
0 65 123
0 66 126
0 67 128
0 70 131
0 72 134
0 73 137
0 75 140
0 76 143
0 78 146
0 79 149
0 81 152
0 82 155
0 84 158
0 85 161
0 87 164
0 88 167
0 90 170
0 91 173
0 93 176
0 95 179
0 97 182
0 99 185
0 101 188
0 102 191
0 104 194
0 105 197
0 106 200
0 108 203
0 110 206
0 111 209
0 113 212
0 114 216
0 116 219
0 117 222
0 119 225
0 121 228
0 123 231
0 125 234
0 127 237
0 128 240
0 129 242
0 130 244
0 131 247
0 132 250
2 133 251
4 133 250
6 133 247
9 134 245
12 134 242
14 134 240
16 134 237
19 134 234
22 134 231
25 134 228
29 134 225
32 134 222
35 134 219
38 134 216
41 134 213
43 134 209
46 134 206
49 134 203
52 134 200
55 134 197
58 134 194
61 134 191
65 134 188
68 134 185
71 134 182
74 134 179
77 134 176
79 134 173
82 134 170
84 134 167
87 134 164
90 134 161
93 134 158
97 134 155
100 134 152
102 134 149
105 134 146
108 134 143
111 134 140
114 134 137
117 134 134
121 134 132
125 134 129
127 134 126
130 134 123
132 134 120
135 134 116
138 134 113
141 134 110
144 134 107
147 134 104
150 134 102
153 134 99
156 134 96
159 134 92
162 134 89
165 134 86
168 134 83
171 134 81
174 134 79
177 134 76
180 134 73
183 134 70
186 134 67
189 134 64
192 134 60
195 134 57
198 134 54
201 134 51
204 134 48
207 134 45
210 134 43
214 134 40
217 134 37
220 134 34
223 134 31
226 134 27
229 134 24
232 134 21
235 134 18
238 134 15
241 134 13
243 134 11
245 134 8
249 134 5
252 134 4
253 134 4
254 134 5
255 134 7
255 134 10
255 134 13
255 134 15
255 134 17
255 134 20
255 134 24
255 134 27
255 134 30
255 134 33
255 134 36
255 134 39
255 134 42
255 134 45
255 134 47
255 134 50
255 134 53
255 134 56
255 134 60
255 134 63
255 134 66
255 134 69
255 134 72
255 134 75
255 134 78
255 134 81
255 134 83
255 134 85
255 134 88
255 134 92
255 134 96
255 134 99
255 134 101
255 134 104
255 134 106
255 134 109
255 134 112
255 134 116
255 134 119
255 134 123
255 134 126
255 134 129
255 134 131
255 134 134
255 134 137
255 134 140
255 134 143
255 134 146
255 134 149
255 134 152
255 134 155
255 134 158
255 134 161
255 134 164
255 134 167
255 134 170
255 134 173
255 134 176
255 134 179
255 134 182
255 134 185
255 134 188
255 134 191
255 134 194
255 134 197
255 134 200
255 134 203
255 134 206
255 134 209
255 134 213
255 134 216
255 134 219
255 134 222
255 134 225
255 134 228
255 134 231
255 134 234
255 134 237
255 134 240
255 134 242
255 134 244
255 134 248
255 134 251
255 134 255
