P3
1 256
255
0 0 125
1 0 127
2 0 129
3 0 131
5 0 133
6 0 134
8 0 136
9 0 138
11 0 140
12 0 141
14 0 142
15 0 144
17 0 146
18 0 148
20 0 150
21 0 151
23 0 153
24 0 154
26 0 156
27 0 158
29 0 160
30 0 161
32 0 162
34 0 164
36 0 166
38 0 168
40 0 170
43 0 171
45 0 173
48 0 174
50 0 176
51 0 179
53 0 181
55 0 182
57 0 183
59 0 184
61 0 186
64 0 188
67 0 190
69 0 192
71 0 194
73 0 196
75 0 198
76 0 199
78 0 201
79 0 202
81 0 203
82 0 205
84 0 207
86 0 208
89 0 210
92 0 213
94 0 215
95 0 216
97 0 217
98 0 218
100 0 220
101 0 221
103 0 223
106 0 225
108 0 227
109 0 228
111 0 230
114 0 233
116 0 235
118 0 236
120 0 238
123 0 239
125 0 240
127 0 241
129 0 243
132 0 245
134 0 247
136 0 249
138 0 251
141 0 252
143 0 254
144 0 255
146 0 255
148 0 255
150 0 255
152 0 255
154 0 255
155 0 255
157 0 255
158 0 255
160 0 255
161 0 255
164 0 255
167 0 255
169 0 255
171 0 255
173 0 255
174 0 255
176 0 255
177 0 255
179 0 255
182 0 255
184 0 255
186 0 255
189 0 255
190 0 255
192 0 255
193 0 255
195 0 255
197 0 255
199 0 255
201 0 255
203 0 255
204 0 255
206 0 255
208 0 255
211 0 255
212 0 255
214 0 255
215 0 255
218 0 255
219 0 255
221 0 255
222 0 255
224 0 255
226 0 255
229 0 255
232 1 255
235 3 255
236 4 255
238 6 255
240 8 255
242 11 255
243 12 255
245 14 255
247 15 255
249 18 255
250 21 255
251 23 255
252 24 255
254 26 255
255 28 255
255 30 255
255 32 255
255 35 255
255 36 255
255 37 255
255 39 255
255 42 255
255 43 255
255 45 255
255 47 255
255 50 255
255 51 255
255 53 255
255 54 255
255 56 255
255 58 255
255 60 255
255 63 255
255 66 255
255 68 255
255 70 255
255 71 255
255 73 255
255 74 255
255 75 255
255 77 255
255 80 255
255 81 255
255 83 255
255 84 255
255 85 255
255 87 255
255 89 255
255 91 255
255 93 255
255 94 255
255 95 255
255 97 255
255 99 255
255 101 255
255 103 255
255 105 255
255 107 255
255 109 255
255 111 255
255 113 255
255 115 255
255 118 255
255 120 255
255 122 255
255 124 255
255 127 255
255 128 255
255 129 255
255 131 255
255 133 255
255 135 255
255 138 255
255 140 255
255 141 255
255 142 255
255 143 255
255 145 255
255 148 255
255 151 255
255 152 255
255 154 255
255 156 255
255 158 255
255 159 255
255 161 255
255 163 255
255 165 255
255 168 255
255 170 255
255 172 255
255 173 255
255 174 255
255 176 255
255 177 255
255 179 255
255 181 255
255 183 255
255 185 255
255 187 255
255 189 255
255 190 255
255 191 255
255 193 255
255 195 255
255 197 255
255 200 255
255 202 255
255 203 255
255 205 255
255 206 255
255 208 255
255 210 255
255 212 255
255 215 255
255 218 255
255 219 255
255 221 255
255 222 255
255 223 255
255 224 255
255 226 255
255 229 255
255 232 255
255 235 255
255 237 255
255 238 255
255 239 255
255 240 255
255 242 255
255 245 255
255 248 255
255 251 255
