P3
1 256
255
1 4 0
1 4 0
1 4 0
1 5 0
2 7 0
3 8 0
5 10 0
7 12 0
8 13 0
10 14 0
12 16 0
14 18 0
16 20 0
17 21 0
19 23 0
21 25 0
24 27 0
26 29 0
27 30 0
29 32 0
31 34 0
33 35 0
35 37 0
37 38 0
39 40 0
41 42 0
43 44 0
44 45 0
46 47 0
49 49 0
51 51 0
53 53 0
54 54 0
56 56 0
58 58 0
60 59 0
63 61 0
64 62 0
66 64 0
68 66 0
70 68 0
72 70 0
74 71 0
76 73 0
78 75 0
80 77 0
82 79 0
83 80 0
85 81 0
88 83 0
90 85 0
92 87 0
93 88 0
95 90 0
97 92 0
99 94 0
102 96 0
103 97 0
105 99 0
107 101 0
109 103 0
111 104 0
113 105 0
115 107 0
117 109 0
119 111 0
121 113 0
122 114 0
124 116 0
127 118 0
129 120 0
131 122 0
132 123 0
134 125 0
136 126 0
138 128 0
141 130 0
142 131 0
144 133 0
146 135 0
148 137 0
149 138 0
152 140 0
154 142 0
156 144 0
158 146 0
159 147 1
161 148 1
163 150 1
166 152 1
168 154 1
169 155 1
171 157 1
173 158 1
175 159 1
177 160 1
179 161 1
181 162 1
183 163 1
185 164 1
187 165 1
188 166 1
190 167 1
192 167 1
193 168 1
194 169 1
195 170 1
196 171 1
197 171 1
198 172 1
199 173 1
200 174 1
201 175 1
201 175 1
202 176 1
203 177 1
204 178 1
205 178 2
205 179 2
206 180 3
207 181 3
208 182 4
209 183 5
209 183 5
210 184 5
211 185 6
211 186 7
212 187 7
213 188 8
214 189 9
215 190 9
216 191 10
217 192 11
217 192 11
218 193 11
218 194 12
219 195 13
220 196 13
221 197 14
222 198 15
223 199 15
224 199 16
224 200 17
224 200 17
225 201 17
226 202 18
227 203 19
228 204 19
229 205 19
230 206 20
230 207 21
231 208 22
232 209 23
232 209 25
233 210 27
234 210 28
235 211 30
236 212 32
236 213 34
237 214 36
238 215 37
239 216 39
239 216 40
240 217 42
241 218 44
242 219 45
242 220 47
243 221 49
244 221 51
245 222 53
246 223 54
247 224 56
247 224 58
248 225 60
249 226 62
249 227 63
249 228 65
249 229 67
249 230 68
250 231 69
250 232 71
250 233 73
250 233 75
250 233 77
251 234 78
251 235 80
251 236 82
251 237 84
251 238 86
252 239 87
252 240 89
252 241 91
252 241 93
252 242 95
253 243 96
253 244 97
253 244 99
253 245 101
253 246 103
254 247 104
254 248 106
254 249 108
254 249 110
254 250 112
254 251 113
254 252 115
254 253 117
254 254 119
254 254 121
254 254 122
254 254 124
254 254 125
254 254 127
254 254 129
254 254 131
254 254 133
254 254 136
254 254 140
254 254 145
254 255 149
254 255 154
254 255 159
254 255 164
255 255 170
255 255 175
255 255 180
255 255 186
255 255 191
255 255 196
255 255 201
255 255 206
255 255 212
255 255 217
255 255 222
255 255 228
255 255 233
255 255 238
255 255 243
255 255 247
255 255 250
255 255 252
255 255 252
255 255 253
255 255 254
255 255 254
255 255 254
255 255 254
255 255 254
255 255 254
255 255 254
255 255 253
255 255 252
255 255 250
254 255 249
254 255 247
254 255 247
