P3
1 256
255
15 0 0
15 0 0
16 0 0
17 0 0
18 0 0
20 0 0
22 0 0
24 0 0
26 0 0
28 0 0
31 1 0
34 1 0
36 1 0
40 1 0
43 1 0
45 1 0
48 1 0
52 1 0
54 2 0
57 2 0
61 2 0
64 2 0
66 3 0
69 3 0
72 4 0
74 4 0
77 4 0
80 4 0
82 5 0
85 5 0
87 6 0
90 6 0
92 7 0
94 7 0
97 8 0
99 8 0
101 8 0
103 9 0
105 9 0
108 10 0
110 10 1
112 11 1
114 11 1
116 12 2
119 12 2
121 12 2
123 13 2
125 13 3
127 14 3
129 14 4
132 15 4
134 15 5
136 16 5
138 16 5
140 16 5
143 17 6
145 17 6
147 18 7
149 18 7
151 19 8
153 19 8
155 20 9
156 20 9
159 21 9
161 21 9
162 21 10
164 22 10
165 22 11
167 23 11
169 23 12
170 24 12
172 24 13
173 25 13
174 25 14
175 25 14
176 26 14
177 27 14
178 27 15
179 28 15
180 29 16
181 30 16
182 31 17
183 32 17
184 33 18
184 33 18
185 34 18
186 35 19
187 36 19
187 37 19
188 38 20
189 39 20
190 40 21
191 42 21
192 43 22
192 43 22
193 44 22
194 45 23
195 47 23
196 48 24
196 49 24
197 50 24
198 51 25
199 53 25
199 53 25
200 54 26
201 55 26
202 56 27
203 58 27
203 59 28
204 60 28
205 61 29
206 62 29
207 64 29
207 64 29
208 65 30
209 67 30
210 68 31
210 69 31
211 70 32
212 71 32
212 72 33
213 73 33
214 74 34
214 75 34
214 76 34
214 77 34
215 78 35
215 79 35
215 80 36
216 81 36
216 82 37
216 83 37
216 84 38
216 85 38
217 86 38
217 87 39
217 88 39
217 90 40
217 92 40
217 93 41
218 94 41
218 96 42
218 98 42
218 99 42
218 101 43
218 102 44
218 104 45
218 106 45
219 107 46
219 109 47
219 110 48
219 112 49
219 113 50
219 114 50
219 116 50
220 117 51
220 118 52
220 120 53
220 121 54
220 122 54
220 123 55
221 125 56
221 125 56
221 127 56
221 128 57
221 129 57
221 130 58
221 132 58
222 133 59
222 134 59
222 135 59
222 137 60
222 137 60
222 139 60
222 140 60
222 141 60
223 142 61
223 144 61
223 145 61
223 146 61
223 148 62
223 149 62
223 150 62
224 151 63
224 152 63
224 153 64
224 155 65
224 156 66
224 157 67
225 158 68
225 160 69
225 161 70
225 162 72
225 163 74
225 164 75
225 165 77
226 167 79
226 168 82
226 169 84
226 170 86
226 172 89
226 173 92
226 174 94
226 175 97
227 176 100
227 177 102
227 179 105
227 180 108
227 181 110
227 182 113
228 184 116
228 184 118
228 186 121
228 187 124
228 188 127
228 189 129
228 191 132
229 192 135
229 193 137
229 194 140
229 196 143
229 196 145
229 198 148
229 199 151
230 200 153
230 201 156
230 203 159
230 204 162
230 205 164
230 206 167
230 208 170
230 208 172
231 210 175
231 211 177
231 212 179
231 213 182
231 214 185
231 216 188
232 217 190
232 218 193
232 219 196
232 220 198
232 221 201
232 222 204
232 224 206
233 225 209
233 226 212
233 227 214
233 228 215
233 229 217
233 230 219
233 230 220
233 230 221
233 231 222
233 231 223
233 231 223
