P3
1 256
255
0 32 24
0 32 24
0 33 24
1 34 24
1 37 24
1 39 24
2 42 24
3 44 25
4 46 25
5 48 26
6 51 27
7 53 28
8 55 29
9 56 30
10 57 31
11 59 32
12 60 33
13 62 35
14 63 36
15 64 37
17 65 39
18 67 40
19 68 42
20 69 43
21 71 45
21 72 46
22 74 48
23 75 49
24 76 51
25 78 52
26 79 54
28 81 55
29 82 56
30 83 58
31 84 59
32 85 60
33 86 61
34 87 62
35 88 63
36 90 64
37 91 65
39 93 66
40 94 67
41 95 69
42 96 70
42 97 70
43 99 71
44 100 72
45 101 74
46 102 75
47 104 76
48 105 77
49 106 78
50 108 79
50 108 80
51 109 81
52 110 82
53 111 83
55 112 84
56 113 85
57 114 86
59 115 87
60 116 88
61 116 89
61 116 89
62 117 90
63 118 91
64 119 92
65 120 93
66 121 94
67 122 95
69 124 96
70 125 97
71 126 98
71 127 99
72 128 100
74 129 102
75 130 103
76 132 105
77 133 106
78 134 108
79 135 109
80 137 111
81 138 112
81 138 113
83 139 114
84 140 115
85 141 117
86 142 118
87 142 119
88 143 120
89 144 121
89 145 122
90 146 124
90 146 124
91 146 125
92 147 126
93 149 127
94 150 128
95 151 129
96 152 130
97 153 131
98 154 133
98 155 133
99 156 134
100 157 135
101 158 136
102 159 137
103 161 138
104 162 139
106 164 139
107 165 140
108 166 141
109 167 141
110 168 141
111 169 142
112 170 142
113 171 143
115 171 144
116 172 145
117 173 146
118 173 147
119 174 148
119 174 148
121 174 149
122 175 150
123 176 151
124 177 152
125 178 153
126 179 154
126 180 155
127 181 156
128 182 157
128 183 157
129 184 158
130 185 159
132 187 161
133 188 162
134 190 163
135 191 164
136 192 165
137 193 167
138 195 167
139 196 167
140 197 168
141 198 169
142 200 170
143 201 171
144 202 172
145 204 173
146 205 173
148 206 174
149 207 176
149 207 176
150 208 177
151 209 178
152 210 179
153 211 181
154 212 182
155 213 183
156 214 184
158 215 185
158 216 185
159 217 186
160 218 187
161 219 188
162 220 188
164 222 189
165 223 190
166 225 191
167 226 192
168 227 193
169 228 194
170 230 195
171 231 197
172 232 198
173 233 199
174 235 200
175 236 201
176 236 202
177 237 203
178 238 204
178 238 204
180 239 205
181 239 206
182 240 207
183 241 208
184 242 209
185 243 210
186 244 211
187 245 212
188 246 213
188 246 213
189 247 215
190 248 216
191 248 217
192 249 218
193 249 220
194 250 221
195 250 222
196 250 223
198 250 224
198 250 225
199 250 226
200 250 227
201 250 228
202 250 230
203 250 231
204 250 232
205 250 233
206 250 234
207 250 234
208 250 235
209 250 236
210 250 237
211 250 238
212 250 239
214 250 241
215 250 242
216 250 243
217 251 244
217 251 245
218 251 246
219 251 247
220 251 248
221 251 248
222 251 249
223 251 249
224 251 250
225 251 250
227 251 250
227 251 250
228 251 250
229 251 250
231 251 250
232 251 250
233 251 250
234 251 250
235 251 250
236 251 250
237 251 251
237 251 251
238 251 251
239 251 251
240 251 251
241 251 251
242 251 251
244 251 251
245 251 251
246 251 251
247 252 252
247 252 252
248 252 252
249 252 252
249 252 252
249 252 252
