P3
1 256
255
4 1 1
5 2 2
5 2 2
6 3 4
7 4 6
8 5 7
8 5 7
9 6 8
11 8 9
12 9 10
12 9 11
13 10 12
15 12 13
16 13 14
16 13 15
17 14 16
19 16 17
20 17 18
20 17 19
21 18 20
23 20 21
24 21 22
24 21 23
25 22 24
27 24 25
28 25 26
28 25 26
29 26 27
31 28 29
32 29 30
32 29 30
33 30 31
34 32 33
35 33 34
36 33 34
37 34 35
38 36 36
39 37 37
40 37 38
41 38 39
42 40 40
43 41 41
44 41 42
45 42 43
46 44 44
47 45 45
48 45 46
49 46 47
50 47 48
51 48 49
52 49 50
53 50 51
54 51 52
55 52 53
56 53 53
57 54 54
58 55 56
59 56 57
60 57 57
61 58 58
62 59 60
63 60 61
64 61 61
65 62 62
66 63 63
67 64 64
68 65 65
69 66 66
70 67 67
71 68 68
72 69 69
73 70 70
74 71 71
75 72 72
76 73 73
77 74 74
78 75 75
79 76 76
80 77 77
81 78 78
82 79 79
83 80 80
84 81 80
85 82 81
86 83 83
87 84 84
88 85 84
89 86 85
90 87 87
91 88 88
91 89 88
92 90 89
94 91 91
95 92 92
95 93 92
96 94 93
98 95 94
99 96 95
99 97 96
100 98 97
102 99 98
103 100 99
103 101 100
104 102 101
106 103 102
107 104 103
107 105 104
108 106 105
110 107 106
111 108 107
111 109 108
112 110 109
114 111 110
115 112 111
115 113 111
116 114 112
118 115 114
119 116 115
119 117 115
120 118 116
121 119 118
122 120 119
123 121 119
124 122 120
125 123 121
126 124 122
127 125 123
128 126 124
129 127 125
130 128 126
131 128 127
132 129 128
133 131 129
134 132 130
135 132 131
136 133 132
137 135 133
138 136 134
139 136 135
140 137 136
141 139 137
142 140 138
143 140 138
144 141 139
145 143 141
146 144 142
147 144 142
148 145 143
149 147 145
150 148 146
151 148 146
152 149 147
153 151 148
154 152 149
155 152 150
156 153 151
157 155 152
158 156 153
159 156 154
160 157 155
161 159 156
162 160 157
163 160 158
164 161 159
165 163 160
166 164 161
167 164 162
168 165 163
169 167 164
170 168 165
171 168 165
172 169 166
173 171 168
174 172 169
174 172 169
175 173 170
177 174 172
178 175 173
178 176 173
179 177 174
181 178 176
182 179 177
182 180 177
183 181 178
185 182 179
186 183 180
186 184 181
187 185 182
189 186 183
190 187 184
190 188 185
191 189 186
193 190 187
194 191 188
194 192 189
195 193 190
197 194 191
198 195 192
198 196 193
199 197 194
201 198 195
202 199 196
202 200 196
203 201 197
204 202 199
205 203 200
206 204 200
207 205 201
208 206 203
209 207 204
210 208 204
211 209 205
212 210 206
213 211 207
214 212 208
215 213 209
216 214 210
217 215 211
218 216 212
219 217 213
220 218 214
221 219 215
222 220 216
223 221 217
224 222 218
225 223 219
226 224 220
227 225 221
228 226 222
229 227 223
230 228 223
231 229 224
232 230 226
233 231 227
234 232 227
235 233 228
236 234 230
237 235 231
238 236 231
239 237 232
240 238 233
241 239 234
242 240 235
243 241 236
244 242 237
245 243 238
246 244 239
247 245 240
248 246 241
249 247 242
250 248 243
251 249 244
252 250 245
253 251 246
254 252 247
255 253 248
