P3
1 256
255
255 255 255
254 254 254
253 253 253
252 252 252
251 251 251
250 250 250
249 249 249
248 248 248
247 247 247
246 246 246
245 245 245
244 244 244
243 243 243
242 242 242
241 241 241
240 240 240
239 239 239
238 238 238
237 237 237
236 236 236
234 235 234
233 234 233
232 233 232
231 232 231
229 230 229
228 229 228
228 228 228
227 227 227
227 227 227
226 226 226
225 225 225
224 224 224
223 223 223
222 222 222
221 221 221
220 220 220
219 219 219
218 218 218
217 217 217
216 216 216
215 215 215
214 214 214
213 213 213
212 212 212
211 211 211
210 210 210
209 209 209
208 208 208
207 207 207
206 206 206
205 205 205
204 204 204
203 203 203
202 202 202
200 200 200
199 199 199
198 199 198
197 198 197
196 198 196
195 197 195
194 195 194
193 194 193
192 194 192
191 193 191
190 191 190
189 190 189
188 188 188
187 187 187
186 186 186
185 185 185
184 184 184
183 183 183
182 182 182
181 181 181
180 180 180
179 179 179
178 178 178
177 177 177
176 176 176
175 175 175
174 174 174
173 173 173
172 172 172
171 171 171
170 170 170
170 170 170
170 170 170
169 169 169
167 167 167
166 166 166
166 166 166
165 165 165
163 163 163
162 162 162
160 162 160
159 161 159
158 159 158
157 158 157
156 158 156
155 157 155
154 155 154
153 154 153
152 154 152
151 153 151
150 151 150
149 150 149
148 149 148
147 148 147
146 147 146
145 146 145
144 144 144
143 143 143
142 142 142
142 142 142
141 141 141
140 140 140
139 139 139
138 138 138
137 137 137
136 136 136
135 135 135
134 134 134
133 133 133
132 132 132
131 131 131
130 130 130
129 129 129
128 128 128
126 127 126
125 126 125
124 125 124
123 124 123
122 123 122
121 122 121
120 121 120
119 120 119
118 119 118
117 118 117
115 117 115
114 116 114
114 114 114
113 114 113
113 114 113
112 113 112
110 112 110
109 111 109
109 110 109
108 109 108
106 108 106
105 107 105
105 105 105
104 104 104
102 102 102
101 101 101
101 101 101
100 100 100
98 98 98
97 97 97
97 97 97
96 96 96
94 94 94
93 93 93
93 93 93
92 92 92
90 90 90
89 89 89
87 89 87
86 88 86
85 86 85
85 85 85
85 85 85
84 85 84
82 84 82
81 83 81
81 82 81
80 81 80
78 80 78
77 79 77
77 78 77
76 77 76
74 76 74
73 75 73
73 74 73
72 73 72
70 72 70
69 71 69
69 70 69
68 69 68
66 68 66
65 67 65
64 66 64
63 65 63
62 63 62
61 62 61
60 61 60
59 60 59
58 58 58
57 57 57
57 57 57
57 57 57
55 55 55
54 54 54
53 54 53
52 53 52
50 51 50
49 50 49
48 50 48
47 49 47
46 47 46
45 46 45
44 46 44
43 45 43
42 43 42
41 42 41
40 42 40
39 41 39
38 39 38
37 38 37
36 38 36
35 37 35
34 35 34
33 34 33
32 34 32
31 33 31
29 31 29
29 30 29
29 29 29
28 29 28
27 28 27
26 27 26
25 26 25
24 25 24
23 24 23
22 23 22
21 22 21
20 21 20
19 19 19
18 18 18
16 17 16
15 16 15
13 15 13
12 14 12
12 13 12
11 12 11
9 11 9
8 10 8
8 9 8
7 8 7
5 7 5
4 6 4
4 5 4
3 4 3
1 3 1
0 2 0
0 1 0
0 0 0
