P3
1 256
255
0 0 2
0 0 4
0 0 7
0 1 10
0 3 12
1 4 15
2 4 17
3 5 20
4 7 23
4 8 25
4 8 28
5 9 31
7 11 34
8 12 36
10 12 39
11 13 42
12 15 44
13 16 47
14 16 49
15 17 52
16 19 55
17 20 57
18 22 60
20 23 63
22 24 66
23 25 68
24 26 71
24 27 74
24 28 76
25 28 79
25 29 81
26 30 84
27 31 87
28 32 89
30 33 92
31 34 95
33 35 98
34 36 100
35 37 103
36 38 106
36 39 108
36 40 111
36 41 113
37 42 116
39 43 119
41 44 121
43 45 124
44 46 127
44 47 130
45 48 131
46 49 131
48 50 130
50 51 131
51 52 132
52 53 133
52 54 133
53 56 135
53 56 136
53 56 136
54 57 137
56 58 139
56 59 140
56 61 141
57 62 141
59 64 142
62 65 143
63 65 144
64 66 145
65 68 146
66 69 147
67 69 148
68 70 149
70 72 150
71 73 151
72 73 152
72 74 153
73 76 154
74 77 155
75 77 156
77 78 157
79 80 159
80 81 160
80 81 161
81 82 162
82 84 163
83 85 164
84 85 165
85 85 166
85 86 167
85 87 168
85 88 169
85 89 170
88 90 170
90 91 171
91 92 172
92 93 173
93 94 174
93 95 175
93 96 176
93 97 177
94 98 178
95 99 179
97 100 180
98 101 181
99 102 182
98 103 183
98 105 184
99 106 185
102 108 186
103 109 187
105 110 188
106 111 189
109 112 190
111 113 191
113 113 192
114 113 193
116 115 194
118 116 195
120 116 196
122 117 197
124 119 198
126 120 198
128 120 199
130 121 200
132 123 201
134 124 202
136 124 203
138 125 204
140 127 205
142 128 206
144 128 207
145 129 208
147 131 209
149 132 210
151 132 210
153 133 210
155 135 210
157 136 210
159 136 210
161 137 210
163 139 211
165 140 212
167 141 212
169 141 213
171 142 214
172 143 214
174 144 214
175 145 214
178 147 215
180 148 215
182 149 215
183 150 215
186 151 215
188 152 216
190 153 216
191 154 217
194 155 218
196 156 218
198 157 218
199 158 219
201 159 219
203 160 219
205 161 219
207 162 219
209 163 220
210 164 221
211 165 222
212 166 222
213 167 222
214 168 223
214 169 223
214 170 223
214 170 223
214 171 223
214 172 223
215 173 224
215 174 226
216 175 226
216 176 226
217 177 227
218 178 227
218 179 227
218 180 227
219 181 227
219 182 227
219 183 227
219 184 227
220 185 227
222 186 227
222 187 227
222 188 227
222 189 228
223 191 230
223 192 230
223 193 230
223 194 231
224 196 231
225 197 231
226 197 231
226 198 231
227 198 231
227 199 232
227 200 233
227 201 234
227 202 234
227 203 235
227 204 235
227 205 235
228 206 235
229 207 235
230 208 235
230 209 235
231 210 236
231 211 237
231 212 238
231 213 238
231 214 239
232 215 239
233 216 239
234 217 239
234 218 239
235 219 239
235 220 239
235 221 239
235 222 240
235 223 241
235 225 242
236 226 242
238 226 243
238 227 243
238 227 243
239 228 243
239 230 243
239 231 243
239 233 243
239 234 244
240 235 246
241 236 247
242 237 247
242 238 247
243 239 247
243 240 247
243 241 247
243 242 247
244 243 247
245 244 247
246 245 246
247 246 242
247 247 242
247 248 242
247 249 242
247 250 242
247 251 242
248 252 242
249 253 242
251 255 242
