P3
1 256
255
0 87 63
0 87 63
0 87 63
0 87 63
0 87 63
0 87 63
0 88 63
0 88 63
0 88 63
0 89 63
0 89 63
0 90 63
0 90 63
0 91 63
0 91 63
0 91 63
0 92 63
0 92 63
0 93 63
0 93 64
0 94 64
0 95 64
0 95 64
0 96 64
0 96 64
0 96 64
0 97 64
0 97 64
0 98 65
0 99 65
0 99 65
0 100 65
0 100 65
0 101 65
0 101 65
0 101 65
0 102 65
0 103 66
0 103 66
0 104 66
0 104 66
0 105 66
0 105 66
0 106 66
0 107 66
0 107 66
0 107 67
0 108 67
0 108 67
0 109 67
0 110 67
0 110 67
0 111 67
0 111 67
0 111 67
0 112 68
0 112 68
0 113 68
0 114 68
0 114 68
0 115 68
0 115 68
0 116 68
0 117 69
0 117 69
1 117 69
1 118 69
1 119 69
1 119 69
1 120 69
2 120 69
2 121 69
2 122 70
3 122 70
3 122 70
3 123 70
4 124 70
5 124 70
5 125 70
6 125 70
7 126 69
8 127 69
9 127 69
11 127 69
11 127 69
13 128 69
14 128 68
16 128 68
17 128 68
19 128 68
21 128 67
22 128 67
25 127 67
27 127 66
29 127 66
32 126 66
34 125 66
36 124 65
39 122 65
42 121 65
44 119 64
47 118 64
50 117 64
52 115 64
56 113 64
59 111 63
62 110 63
64 108 63
68 106 62
71 103 62
74 101 62
77 100 61
80 98 61
82 96 61
86 94 61
89 91 60
91 90 60
93 88 60
96 86 59
99 85 59
101 83 59
102 82 59
104 80 58
106 79 58
108 77 58
109 76 58
110 75 57
111 74 57
112 72 57
113 71 56
114 70 56
114 69 56
114 68 55
114 67 55
115 66 55
115 65 55
114 65 54
114 64 54
114 63 54
113 62 54
113 61 53
112 61 53
112 60 53
112 60 53
111 59 52
110 58 52
110 58 52
109 57 51
108 56 51
107 56 51
106 55 50
105 54 50
104 54 50
104 54 50
103 53 49
102 52 49
101 52 49
100 51 49
100 50 48
99 50 48
98 49 48
97 49 47
97 49 47
96 48 47
95 47 47
94 47 46
93 46 46
92 46 46
91 45 45
91 45 45
90 44 45
89 44 44
89 44 44
88 44 44
87 43 44
87 43 44
86 43 43
86 43 43
85 44 43
85 45 42
85 46 42
86 47 42
86 48 42
87 50 41
88 51 41
90 53 41
91 55 40
93 58 40
95 60 40
97 63 40
99 66 40
102 69 40
104 71 40
106 74 40
109 78 40
111 80 41
113 83 43
116 86 45
118 88 47
120 92 48
123 95 51
126 98 54
128 100 57
130 103 60
133 107 64
135 109 67
138 112 71
140 115 75
142 117 78
145 121 82
147 124 86
149 126 90
152 129 94
155 132 97
157 136 101
159 138 104
162 141 109
164 144 112
166 146 116
169 150 120
172 153 123
174 155 127
176 158 131
179 161 135
181 164 139
183 167 142
186 170 146
189 173 150
191 176 154
193 179 158
196 182 161
198 184 165
200 187 169
203 190 173
205 193 177
208 196 180
210 199 184
213 202 188
215 205 192
217 208 196
220 211 199
222 213 203
225 216 207
227 219 211
229 222 214
232 225 218
234 228 222
236 230 225
238 233 229
240 236 232
242 238 235
244 240 237
245 241 239
246 242 240
246 243 241
246 243 241
