P3
1 256
255
187 2 2
189 2 2
191 3 3
193 4 4
196 6 5
198 7 6
201 9 8
203 10 10
206 11 11
208 13 12
210 14 14
213 16 16
215 18 17
216 19 18
217 20 20
217 22 21
218 24 23
219 26 24
220 27 25
221 28 27
222 30 29
222 32 30
223 33 32
224 34 33
225 36 34
225 37 34
226 39 35
226 40 36
227 42 37
228 44 39
229 46 40
230 48 41
230 49 41
231 51 41
232 52 41
232 54 41
233 56 41
233 57 41
234 58 41
235 60 41
236 62 41
237 63 41
237 64 41
238 66 41
239 68 42
239 70 42
240 72 42
241 73 42
241 75 42
242 76 42
243 78 42
244 80 42
245 81 42
245 82 42
245 83 42
246 85 42
247 87 42
248 88 42
249 90 42
248 92 42
248 94 42
247 96 42
247 97 42
247 98 42
247 99 42
247 101 42
247 103 42
247 104 42
247 106 43
247 108 43
247 110 43
246 112 43
246 114 43
246 116 43
246 117 43
246 119 43
245 120 43
244 121 43
243 122 43
243 123 43
243 125 43
243 126 43
243 127 43
243 128 43
243 128 43
243 128 43
243 129 43
243 129 43
243 130 43
243 131 43
243 131 43
243 132 44
243 133 44
243 134 44
243 134 44
243 135 44
243 136 44
243 137 44
243 138 44
243 139 44
243 140 44
243 141 44
243 141 44
243 141 44
243 142 44
243 142 44
242 143 44
242 145 44
242 146 44
241 147 44
241 148 44
240 148 44
239 149 44
239 149 44
239 150 44
239 150 44
239 151 45
239 152 45
239 153 45
239 153 45
239 153 45
239 154 45
239 155 45
239 155 45
239 156 45
239 157 45
239 158 45
239 159 45
239 160 45
239 161 45
239 161 45
239 162 45
239 163 45
239 163 45
239 164 45
238 165 45
238 166 45
238 167 45
238 168 45
237 169 46
236 169 46
235 170 46
234 171 46
234 171 46
233 171 46
232 172 46
231 173 46
230 173 46
230 174 46
228 175 46
227 176 46
226 176 46
225 177 46
225 177 46
224 178 46
223 179 46
222 180 46
221 181 46
220 182 46
220 182 46
219 183 46
219 184 46
219 184 46
218 185 46
217 186 47
216 187 47
215 188 47
214 189 47
213 189 47
212 190 47
211 191 47
210 192 47
210 192 47
209 193 47
208 194 47
207 195 47
206 196 47
205 197 47
204 197 47
203 198 47
202 198 47
201 199 47
201 199 47
200 200 47
199 200 47
199 201 47
198 202 47
197 203 48
197 203 48
196 204 48
195 205 48
193 207 48
193 207 48
192 208 48
191 209 48
191 209 48
190 210 48
189 210 48
188 211 48
187 212 48
185 213 48
183 214 48
181 214 48
179 215 48
177 216 48
175 217 48
173 218 48
170 218 48
168 219 48
167 220 48
164 221 48
162 221 48
159 221 49
157 222 49
155 222 49
153 223 49
150 224 49
147 225 49
145 226 49
143 227 49
141 228 49
139 229 49
136 231 49
134 232 49
132 233 49
129 235 49
126 236 49
124 237 49
122 239 49
119 240 49
116 241 49
114 242 49
112 244 49
110 245 49
108 246 49
105 247 50
103 249 50
100 250 50
98 251 50
94 253 50
91 254 50
87 254 50
82 254 50
78 254 50
72 254 50
68 254 50
62 254 50
57 254 48
52 254 45
47 254 40
42 254 35
37 254 30
31 255 25
28 255 22
26 255 20
26 255 20
