P3
1 256
255
249 0 8
249 0 8
249 0 9
249 0 9
249 0 10
249 0 10
249 0 11
249 0 13
249 0 14
249 0 15
249 1 17
249 1 19
249 1 21
249 1 23
249 1 25
249 1 27
249 1 30
249 1 32
249 1 34
249 1 37
249 1 39
249 2 42
249 2 44
248 2 46
248 2 48
248 2 50
248 2 52
248 3 53
248 3 55
248 3 56
248 3 58
248 4 59
248 4 60
248 5 61
248 6 62
248 6 62
248 6 63
248 7 63
248 8 64
248 9 64
248 10 64
248 11 65
248 12 65
248 14 65
248 16 65
248 17 65
248 19 65
248 21 65
248 23 65
248 25 65
248 28 64
248 30 64
248 33 64
248 36 64
248 38 64
248 42 63
248 45 63
248 48 63
248 51 63
248 55 62
248 58 62
248 61 62
248 65 62
248 68 62
248 72 62
248 75 61
248 79 61
248 83 61
248 86 61
247 90 61
247 93 61
247 97 61
247 101 61
247 104 61
247 108 61
247 111 61
247 115 61
247 119 60
247 123 60
247 127 60
247 130 60
247 134 60
247 138 60
247 141 60
247 144 60
247 147 60
246 151 60
246 155 60
246 158 59
246 161 59
245 164 59
245 167 59
245 170 59
244 173 59
244 175 59
244 178 59
243 181 59
243 183 60
242 185 60
241 188 60
241 190 61
240 192 61
239 194 62
239 196 62
239 198 62
238 201 63
237 202 64
236 204 65
235 206 66
234 207 67
233 209 68
232 210 69
230 212 70
229 213 70
228 214 71
226 215 72
225 216 73
224 217 74
222 218 75
220 219 76
219 220 76
218 221 77
216 222 77
214 222 77
212 222 78
210 223 78
209 224 78
207 225 78
204 225 78
202 226 78
200 227 78
198 228 79
195 229 79
193 229 79
190 229 79
187 230 79
185 231 79
182 232 79
178 233 79
176 234 79
172 235 79
169 235 79
164 236 79
160 236 79
156 237 79
152 237 79
148 238 79
144 238 79
139 239 79
134 239 79
129 239 79
124 239 79
119 239 79
114 239 79
108 238 79
103 238 79
97 237 79
92 236 80
87 234 80
82 233 80
77 232 81
72 230 81
67 228 81
62 225 82
58 222 83
53 219 84
49 216 85
45 212 86
42 209 88
38 204 89
34 200 90
31 196 92
29 191 93
26 186 95
23 181 97
21 176 98
19 171 99
17 165 101
15 160 103
14 155 104
12 149 106
11 143 108
10 137 110
9 132 112
8 127 113
7 121 115
6 115 118
6 109 120
5 104 122
4 99 123
4 94 125
4 89 127
4 84 129
3 79 131
3 75 132
3 70 134
2 66 136
2 61 138
2 58 140
2 54 142
2 51 144
2 47 146
2 43 148
2 40 150
2 37 151
2 35 153
2 32 155
2 29 157
2 27 158
2 25 159
2 23 161
2 21 163
2 19 165
2 17 167
2 16 168
2 15 170
2 13 172
2 12 174
2 10 176
2 9 177
2 8 179
2 8 181
2 7 183
2 6 185
2 5 186
2 4 188
2 4 190
2 3 192
2 2 194
2 2 195
2 2 197
2 2 199
2 1 202
2 1 204
2 1 206
2 0 208
2 0 211
2 0 213
2 0 215
2 0 217
2 0 220
2 0 222
2 0 224
2 0 226
2 0 228
2 0 230
2 0 232
2 0 234
2 0 235
2 0 236
2 0 238
2 0 238
2 0 239
2 0 240
2 0 240
2 0 240
