P3
1 256
255
0 6 134
0 6 134
0 6 134
0 7 134
0 7 134
0 7 134
0 7 134
0 7 134
0 7 134
0 8 134
0 8 134
0 8 134
0 9 135
0 9 135
0 10 135
0 10 135
0 10 135
0 11 136
0 12 136
0 12 136
0 13 137
0 14 137
0 15 137
0 16 138
0 17 138
0 17 138
0 18 139
0 19 139
0 20 139
0 22 140
0 23 140
0 25 141
0 26 141
0 27 141
0 29 142
0 31 142
0 33 142
0 34 143
0 36 143
0 38 143
0 41 144
0 43 144
0 45 145
1 48 145
1 51 145
1 53 145
1 56 145
1 59 145
1 61 145
2 64 145
2 68 145
2 71 145
2 74 145
3 77 144
3 81 144
3 85 144
4 88 143
4 92 142
4 95 141
5 99 140
5 103 139
6 107 137
7 111 136
7 114 134
7 117 132
8 120 129
9 124 127
10 127 124
11 130 121
12 133 118
13 135 115
14 137 111
15 139 107
16 141 103
16 143 99
18 144 95
19 146 91
20 147 87
22 148 83
23 149 78
25 150 75
26 150 71
28 151 67
30 152 63
32 152 59
34 152 56
35 153 52
37 154 49
39 154 46
42 155 43
44 155 41
46 156 38
48 156 35
51 157 33
53 157 31
56 157 29
59 158 27
61 158 25
64 159 23
67 159 22
69 160 20
72 160 19
75 161 17
77 161 17
80 161 16
83 162 15
87 162 14
89 163 13
92 163 12
96 164 11
98 164 10
102 165 9
105 165 9
108 165 9
111 166 8
114 166 8
117 167 7
119 167 7
122 168 6
125 168 6
127 169 6
130 169 6
132 170 5
134 170 5
137 170 5
139 170 5
140 171 5
143 171 5
145 171 4
147 171 4
148 171 4
150 171 4
152 171 4
154 171 4
156 171 4
157 171 4
159 171 4
161 171 4
163 171 4
164 171 4
165 170 4
167 170 4
168 170 4
168 170 4
169 170 4
170 169 4
171 169 4
171 169 4
172 168 4
172 168 4
173 167 4
173 167 4
174 166 4
174 166 4
175 165 4
175 164 4
176 163 4
176 162 4
177 161 4
177 160 4
177 159 4
177 157 4
177 155 4
177 153 4
177 151 4
177 149 4
177 147 4
177 144 4
177 141 4
177 138 4
177 134 4
177 131 4
177 127 4
177 124 4
178 120 4
178 116 4
178 113 4
179 109 4
179 106 4
179 102 4
180 98 4
180 95 4
180 91 4
181 88 4
181 84 4
181 81 4
182 78 4
182 74 4
183 72 4
183 69 4
184 65 4
184 62 4
184 60 4
184 58 4
185 55 4
185 53 4
186 51 4
186 48 4
187 46 4
187 45 4
187 43 4
188 41 4
188 39 4
188 37 4
189 36 4
189 35 3
189 33 3
190 32 3
190 31 3
191 30 3
191 28 3
191 28 3
192 27 3
192 26 3
192 26 3
193 25 3
193 24 3
194 23 3
194 23 3
195 22 3
195 22 3
195 22 3
195 21 3
196 21 3
196 20 3
197 20 3
197 20 3
197 19 3
198 19 3
198 19 3
199 19 3
199 19 3
199 18 3
200 18 3
200 18 3
200 18 3
201 17 3
201 17 3
202 17 3
202 17 3
203 16 3
203 16 3
203 16 3
203 16 3
204 16 3
204 16 3
205 15 3
205 15 3
205 15 3
206 15 3
206 15 3
206 15 3
206 15 3
206 15 3
206 15 3
206 15 3
