P3
1 256
255
0 5 224
0 5 224
0 5 225
0 5 226
0 5 227
0 5 229
0 5 231
0 6 233
0 6 234
0 7 236
0 7 238
0 7 240
0 8 242
0 8 243
0 9 245
0 9 246
0 9 247
0 10 248
0 10 249
0 10 250
0 11 251
0 12 251
0 12 252
0 13 252
0 14 252
0 14 252
0 15 253
0 16 253
0 17 253
0 18 253
0 20 254
0 21 254
0 22 254
0 23 254
0 25 254
0 26 254
0 28 254
0 29 254
0 31 254
0 33 253
0 35 253
0 37 252
0 38 251
0 41 250
0 44 249
0 46 248
0 49 246
1 52 245
1 54 243
1 58 240
1 62 237
2 65 235
2 69 231
2 72 228
2 76 224
2 81 219
3 85 214
3 89 209
4 93 203
4 98 198
4 102 192
5 106 186
5 110 179
6 115 172
6 119 166
6 124 159
7 128 152
8 132 145
8 136 137
9 141 130
10 145 123
11 150 117
12 154 110
13 158 103
13 162 97
14 167 91
16 171 85
17 176 80
18 179 75
20 184 70
21 188 66
22 192 61
24 196 57
26 200 53
28 204 49
30 207 46
31 211 42
33 214 40
36 217 37
38 220 34
40 222 32
43 224 29
45 226 27
48 228 25
50 230 23
53 232 21
56 233 20
58 234 19
61 236 17
65 237 16
67 238 15
70 239 14
73 240 13
76 240 13
79 240 12
82 241 11
85 242 10
88 242 10
91 243 9
95 244 8
97 244 8
101 245 7
104 245 7
107 245 7
111 246 6
114 246 6
117 247 6
120 247 5
124 248 5
127 248 5
131 249 5
135 249 5
138 249 5
142 249 5
145 250 5
149 250 5
152 250 5
155 250 5
159 250 4
162 250 4
165 250 4
169 249 4
172 249 4
174 249 4
177 248 4
180 247 4
182 246 4
184 245 4
187 243 4
189 241 4
190 240 4
192 238 4
194 236 4
195 234 4
197 231 4
198 229 4
199 227 4
200 224 4
202 221 4
203 219 4
204 215 4
205 212 4
206 209 4
206 205 4
207 202 4
208 199 4
209 196 4
210 192 4
210 188 4
211 185 4
212 181 4
213 178 4
213 174 4
214 169 4
215 166 4
216 161 4
217 158 4
218 153 4
219 149 4
219 144 4
220 139 4
221 134 4
221 130 4
222 125 4
223 120 4
224 115 4
225 111 4
226 106 4
227 102 4
227 97 4
228 93 4
229 89 4
229 85 4
230 82 4
231 78 4
232 75 4
233 72 4
234 68 4
235 66 4
236 63 4
236 60 4
237 57 4
237 55 4
238 52 4
239 50 4
240 48 4
240 46 4
241 43 4
241 41 4
242 40 4
242 38 4
243 36 4
243 34 4
243 32 4
243 31 4
243 30 4
244 29 4
244 27 4
244 26 4
244 25 4
244 24 4
244 24 4
244 24 4
244 23 4
243 22 4
243 22 4
243 22 4
243 21 4
243 21 4
243 21 4
243 21 4
243 21 4
243 20 4
244 20 4
244 20 4
244 20 4
244 20 4
244 20 4
245 19 4
245 19 4
245 19 4
245 19 4
246 19 4
246 19 4
247 18 4
247 18 4
248 18 4
248 18 4
248 17 4
249 17 4
249 17 4
249 17 4
250 17 4
250 16 4
251 16 4
251 15 4
251 15 4
252 15 4
252 15 4
252 14 4
252 14 4
252 14 4
252 14 3
252 14 3
253 14 3
253 14 3
