P3
1 256
255
0 4 165
0 4 165
0 5 167
0 5 168
0 6 171
0 6 174
0 8 179
0 9 182
0 10 187
0 12 191
0 14 196
0 16 200
0 18 205
0 20 209
0 23 214
0 25 218
0 27 221
0 30 224
0 32 227
0 35 229
0 38 232
0 41 234
0 43 236
0 46 237
0 49 239
0 51 239
0 54 240
0 57 241
0 59 241
0 62 241
0 65 242
0 68 241
0 70 241
0 73 240
0 76 239
0 78 239
0 81 237
0 84 235
0 86 233
0 89 230
0 92 226
0 94 223
1 97 218
1 100 213
1 103 208
1 105 203
1 108 197
1 111 192
1 113 185
1 116 180
2 119 174
2 121 168
2 124 162
3 127 156
3 129 152
3 132 147
3 135 142
4 138 137
4 140 133
4 143 129
5 146 125
5 148 122
6 151 118
6 154 115
6 156 112
7 159 109
7 162 106
8 165 104
9 167 102
9 170 99
10 173 97
11 175 95
12 178 94
13 181 91
13 183 90
14 185 88
15 188 86
16 190 85
18 193 83
19 196 82
21 199 80
22 201 79
24 204 78
26 207 77
28 209 76
30 212 75
31 215 74
33 217 73
36 219 72
38 222 71
40 224 70
42 226 69
45 228 68
48 230 67
50 231 67
53 233 66
56 234 66
58 235 65
62 236 64
65 238 64
67 239 63
70 240 63
73 240 62
76 240 62
79 241 62
82 242 61
86 242 61
88 243 61
92 244 60
95 244 60
98 245 60
101 245 59
104 246 59
107 246 59
111 246 59
114 247 59
118 247 59
120 248 58
124 248 58
127 249 58
131 249 58
135 250 58
138 250 58
142 250 58
145 251 58
149 251 58
153 251 58
156 251 58
160 252 58
163 252 58
167 251 57
170 251 57
173 251 57
176 251 57
179 250 56
182 249 56
184 248 55
186 246 55
189 245 54
191 243 53
192 242 52
194 240 51
195 237 50
197 235 50
198 233 49
199 231 48
200 229 46
201 226 45
202 223 43
203 221 41
204 219 40
205 216 39
206 213 37
206 211 36
207 208 35
208 205 34
209 203 33
210 200 31
211 197 31
212 195 30
213 192 29
214 189 29
214 187 29
215 185 29
215 182 28
216 179 28
217 177 28
218 174 28
219 171 28
220 169 28
221 166 28
222 163 28
222 161 28
223 158 28
223 155 28
224 153 28
225 150 28
226 147 28
227 144 28
228 143 28
229 140 28
230 137 28
230 135 28
231 132 28
232 129 28
232 127 28
233 124 28
234 121 28
235 119 28
236 116 28
237 113 28
238 110 28
238 108 28
239 105 28
240 102 28
240 100 28
241 98 28
242 95 28
242 93 28
243 90 28
243 87 28
244 84 28
244 82 28
244 79 28
244 76 28
244 74 28
245 71 28
245 68 28
245 66 27
245 63 27
244 60 27
244 58 27
244 56 26
244 53 26
244 50 25
244 48 24
244 46 24
244 43 23
243 41 22
243 40 21
243 38 20
243 36 20
244 34 19
244 32 18
244 31 17
244 30 16
244 28 15
245 27 14
245 26 13
245 25 12
246 24 11
246 24 11
246 23 10
247 22 9
247 21 9
248 21 8
248 20 7
248 20 7
249 19 7
249 19 6
250 18 6
250 18 6
250 18 6
251 17 5
251 17 5
252 16 5
252 16 5
252 15 5
253 15 4
253 15 4
253 14 4
253 14 4
253 14 4
253 14 4
253 14 4
253 14 4
